<svg xmlns="http://www.w3.org/2000/svg" viewBox="0 0 84.17 117.69"><defs><style>.cls-1,.cls-2,.cls-3{fill:#3f3f3f;}.cls-1{stroke:#fff;}.cls-1,.cls-3{stroke-miterlimit:10;}.cls-3{stroke:#f3f3f3;}.cls-4{fill:#fff;}</style></defs><g id="Calque_2" data-name="Calque 2"><g id="rice_bowl_empty" data-name="rice bowl empty"><path class="cls-1" d="M83.08,57.58A24.79,24.79,0,0,0,82,54c-2.23-5.83-6.94-12.81-13.46-19.32S55.06,23.48,49.23,21.26a23.68,23.68,0,0,0-3.56-1.08,8.26,8.26,0,0,1,2-.51c6-.8,15.54,3.81,23.84,12.11s12.91,17.8,12.1,23.83A8,8,0,0,1,83.08,57.58Z"/><rect class="cls-2" x="64.23" y="31.61" width="8.68" height="6.17" rx="0.94" transform="translate(-4.45 58.64) rotate(-45)"/><polygon class="cls-1" points="73.94 32.32 73.36 32.9 71.83 34.44 70.37 35.9 40.92 65.34 37.91 62.33 61.63 38.62 67.36 32.89 68.82 31.43 70.36 29.89 70.93 29.31 73.94 32.32"/><rect class="cls-1" x="64.23" y="31.61" width="8.68" height="6.17" rx="0.94" transform="translate(-4.45 58.64) rotate(-45)"/><circle class="cls-1" cx="21.12" cy="17.54" r="17.04"/><path class="cls-3" d="M11.61,28.51a24.12,24.12,0,0,1,9.45-1.83,23.94,23.94,0,0,1,9.57,1.89"/><rect class="cls-1" x="26.31" y="49.42" width="28.35" height="3.49" rx="1.28" transform="translate(16.42 111.81) rotate(-120)"/><polygon class="cls-1" points="21.12 115.32 38.16 36.31 4.08 36.31 21.12 115.32"/><path class="cls-4" d="M7.21,32h0a.22.22,0,0,1,0,.08,1.68,1.68,0,0,1-3.36,0,.71.71,0,0,1,0-.14.22.22,0,0,1,0-.14c0-.06,0-.13,0-.21.28-1.2,1.3-4.92,2.37-2.52S7.21,32,7.21,32Z"/><path class="cls-4" d="M3.89,31.78a.22.22,0,0,0,0,.14h0Z"/><path class="cls-2" d="M6.72,31.81h0a.13.13,0,0,1,0,.06,1.19,1.19,0,0,1-2.37,0,.38.38,0,0,1,0-.1.31.31,0,0,1,0-.1,1,1,0,0,1,0-.14c.19-.84.91-3.43,1.66-1.76A5.07,5.07,0,0,1,6.72,31.81Z"/><path class="cls-2" d="M4.37,31.67a.31.31,0,0,0,0,.1h0Z"/><path class="cls-4" d="M3.36,25.88h0a.25.25,0,0,1,0,.08,1.67,1.67,0,0,1-1.68,1.66A1.67,1.67,0,0,1,0,26a.57.57,0,0,1,0-.13.34.34,0,0,1,0-.15c0-.06,0-.13.05-.21.28-1.2,1.3-4.92,2.37-2.52S3.36,25.88,3.36,25.88Z"/><path class="cls-4" d="M0,25.68a.34.34,0,0,0,0,.15H0Z"/><path class="cls-2" d="M2.86,25.72h0v.05a1.17,1.17,0,0,1-1.18,1.16A1.17,1.17,0,0,1,.5,25.77a.28.28,0,0,1,0-.09.41.41,0,0,1,0-.11s0-.08,0-.14c.19-.84.91-3.43,1.66-1.75A4.82,4.82,0,0,1,2.86,25.72Z"/><path class="cls-2" d="M.52,25.57a.41.41,0,0,0,0,.11h0Z"/><path class="cls-4" d="M39.59,29.25h0a.22.22,0,0,1,0,.08,1.68,1.68,0,0,1-3.36,0,.71.71,0,0,1,0-.14.27.27,0,0,1,0-.15c0-.05,0-.12,0-.2.28-1.2,1.3-4.92,2.37-2.52S39.59,29.25,39.59,29.25Z"/><path class="cls-4" d="M36.27,29a.27.27,0,0,0,0,.15h0Z"/><path class="cls-2" d="M39.1,29.08h0a.13.13,0,0,1,0,.06,1.19,1.19,0,0,1-2.37,0,.38.38,0,0,1,0-.1.16.16,0,0,1,0-.1.39.39,0,0,1,0-.14C37,28,37.7,25.37,38.45,27A5.07,5.07,0,0,1,39.1,29.08Z"/><path class="cls-2" d="M36.76,28.94a.16.16,0,0,0,0,.1h0Z"/></g></g></svg>