<svg xmlns="http://www.w3.org/2000/svg" viewBox="0 0 46.8 102.13"><defs><style>.cls-1,.cls-2,.cls-4{fill:#3f3f3f;}.cls-1{stroke:#fff;}.cls-1,.cls-2{stroke-miterlimit:10;}.cls-2{stroke:#f3f3f3;}.cls-3{fill:#fff;}</style></defs><g id="Calque_2" data-name="Calque 2"><g id="rice_bowl_empty" data-name="rice bowl empty"><circle class="cls-1" cx="23.4" cy="16.77" r="16.27"/><polygon class="cls-1" points="23.4 35.83 0.7 101.63 46.1 101.63 23.4 35.83"/><path class="cls-2" d="M14.38,26.7a13.82,13.82,0,0,1,9-3.5,13.83,13.83,0,0,1,9.15,3.61"/><rect class="cls-3" x="20.16" y="48.49" width="29.13" height="19.57" rx="9.53" transform="translate(-30.05 78.42) rotate(-76.49)"/><path class="cls-4" d="M43.6,58.87l-1.42,6a8.82,8.82,0,0,1-16,2.79A15.44,15.44,0,0,1,33.83,64,21.11,21.11,0,0,0,43.6,58.87Z"/><path class="cls-4" d="M32.32,63.36a15.8,15.8,0,0,0-6.65,3.37A8.69,8.69,0,0,1,24.78,62a9.45,9.45,0,0,1,.2-1.28l1.29-5.47A15.82,15.82,0,0,0,32.32,63.36Z"/><path class="cls-4" d="M41,53.14a4.87,4.87,0,1,1-4.43-5.28,5,5,0,0,1,.87.16h0a2.77,2.77,0,0,1,1.46,1.47,1.55,1.55,0,0,1-.38,1.32,1.4,1.4,0,0,1-1.2.44,1.52,1.52,0,0,1-1.21-.73.52.52,0,0,0-.69-.21.5.5,0,0,0-.2.68,2.44,2.44,0,0,0,2,1.25h0a2.39,2.39,0,0,0,2.08-.83,2.73,2.73,0,0,0,.61-1.75A4.82,4.82,0,0,1,41,53.14Z"/><path class="cls-4" d="M37.77,45.12a8.85,8.85,0,0,0-10.65,6.57l-.38,1.64a17,17,0,0,0,1.64,4.25,4.19,4.19,0,0,1,3-1.35,5.86,5.86,0,1,1,7.52,1.63A4.13,4.13,0,0,1,40.56,60,25.64,25.64,0,0,0,44,57.12l.32-1.36a8,8,0,0,0,.2-1.27A8.84,8.84,0,0,0,37.77,45.12Zm0,13.23a5.75,5.75,0,0,1-2.16.21,5.87,5.87,0,0,1-2.72-1h0a3.13,3.13,0,0,0-3.91.88A14.94,14.94,0,0,0,33.7,63a18.17,18.17,0,0,0,6-2.44A3.16,3.16,0,0,0,37.75,58.35Z"/></g></g></svg>