<?xml version="1.0" encoding="utf-8"?>
<!-- Generator: Adobe Illustrator 25.0.0, SVG Export Plug-In . SVG Version: 6.00 Build 0)  -->
<svg version="1.1" id="Layer_1" xmlns="http://www.w3.org/2000/svg" xmlns:xlink="http://www.w3.org/1999/xlink" x="0px" y="0px"
	 viewBox="0 0 1000 1000" style="enable-background:new 0 0 1000 1000;" xml:space="preserve">
<style type="text/css">
	.st0{fill:#FFFFFF;}
	.st1{fill:url(#SVGID_1_);}
	.st2{fill:url(#SVGID_2_);}
	.st3{fill:url(#SVGID_3_);}
	.st4{fill:url(#SVGID_4_);}
	.st5{fill:url(#SVGID_5_);}
	.st6{fill:url(#SVGID_6_);}
	.st7{fill:url(#SVGID_7_);}
	.st8{fill:url(#SVGID_8_);}
	.st9{fill:url(#SVGID_9_);}
</style>
<g>
	<path class="st0" d="M912.3,79.2C890.3,189,851.5,295,784.4,379.7c-14,17.8-29.4,34.7-46.1,50.5c-28.1,26.5-60,48.4-90.3,72.2
		c-7.7,6.1-15.4,12.2-22.8,18.7c-1.3,1.1-2.7,2.3-4.1,3.5c-11.2,9.9-22.1,20.7-31.9,32.2c-0.1,0.1-0.1,0.2-0.3,0.3
		c-23,26.9-40.6,58-45.5,92.7c-11.2-16.8-19.9-35-26.2-54.1c-15.3-46.3-16.4-97.4-3.1-144c8.6-30.4,23.4-58.9,44.4-82.8
		c40.3-46,97.4-72.9,152.5-99.5c1.1-0.5,2.2-1,3.3-1.6c42.5-20.6,85-42.2,121.3-72.4C872.1,165.1,894.2,127.8,912.3,79.2z"/>
	<path class="st0" d="M794.9,452.3c-24.2,19.2-50.8,34.6-78.4,48.3c-27.9,13.8-56.8,25.8-85.5,38.1c-4.7,2-9.4,4-14.2,6.1
		c-9.1,3.9-18.3,8-27.4,12.2c-0.1,0-0.2,0.1-0.4,0.1c-24.7,11.4-49,23.9-71.7,38.6c-15.3-46.3-16.4-97.4-3.1-144
		c12-10.3,25.4-19,39.8-25.8c8.9-4.2,18-7.7,27.2-10.5c50.7-16,106.5-15.6,159.4-25.5c14.1-2.6,28.9-5.8,43.8-10.2
		c51.5-15,103.1-43.4,119.6-108.1C909.6,338.5,847.5,410.6,794.9,452.3z"/>
	<path class="st0" d="M510.8,499.4c35.7,9.5,60.7,37.5,85.4,65c13.9,15.5,30.2,31.6,46.1,44.9c12.4,10.4,25.8,19.2,40.9,24.8
		c-27.1-14.9-38.1-34.2-44.2-59.4c-6.1-25.2-8.7-52.5-24.6-73c-6.4-8.2-14.8-14.9-24.2-19.3c-8.4-4-17.7-6.3-27-6.5
		C543.4,475.5,523.6,484.3,510.8,499.4z"/>
	<path class="st0" d="M497.5,620.7L497.5,620.7c0,0-64.3,89.7-44.6,156s40.5,111.2,31.9,144.1c0,0,23-35.9,16-96.1
		S487.1,655.6,497.5,620.7z"/>
	<path class="st0" d="M497.5,620.7c0,0-43.7,61.1-14,144.7s32.4,89.7,30.4,113.3c0,0,19.6-40.5,26.3-89
		C547,741.1,498.6,689.1,497.5,620.7z"/>
	<path class="st0" d="M87.7,79.2c22,109.8,60.8,215.9,127.9,300.6c14,17.8,29.4,34.7,46.1,50.5c28.1,26.5,60,48.4,90.3,72.2
		c7.7,6.1,15.4,12.2,22.8,18.7c1.3,1.1,2.7,2.3,4.1,3.5c11.2,9.9,22.1,20.7,31.9,32.2c0.1,0.1,0.1,0.2,0.3,0.3
		c23,26.9,40.6,58,45.5,92.7c11.2-16.8,19.9-35,26.2-54.1c15.3-46.3,16.4-97.4,3.1-144c-8.6-30.4-23.4-58.9-44.4-82.8
		c-40.3-46-97.4-72.9-152.5-99.5c-1.1-0.5-2.2-1-3.3-1.6c-42.5-20.6-85-42.2-121.3-72.4C127.9,165.1,105.8,127.8,87.7,79.2z"/>
	<path class="st0" d="M205.1,452.3c24.2,19.2,50.8,34.6,78.4,48.3c27.9,13.8,56.8,25.8,85.5,38.1c4.7,2,9.4,4,14.2,6.1
		c9.1,3.9,18.3,8,27.4,12.2c0.1,0,0.2,0.1,0.4,0.1c24.7,11.4,49,23.9,71.7,38.6c15.3-46.3,16.4-97.4,3.1-144
		c-12-10.3-25.4-19-39.8-25.8c-8.9-4.2-18-7.7-27.2-10.5c-50.7-16-106.5-15.6-159.4-25.5c-14.1-2.6-28.9-5.8-43.8-10.2
		c-51.5-15-103.1-43.4-119.6-108.1C90.4,338.5,152.5,410.6,205.1,452.3z"/>
	<path class="st0" d="M489.2,499.4c-35.7,9.5-60.7,37.5-85.4,65c-13.9,15.5-30.2,31.6-46.1,44.9c-12.4,10.4-25.8,19.2-40.9,24.8
		c27.1-14.9,38.1-34.2,44.2-59.4c6.1-25.2,8.7-52.5,24.6-73c6.4-8.2,14.8-14.9,24.2-19.3c8.4-4,17.7-6.3,27-6.5
		C456.6,475.5,476.4,484.3,489.2,499.4z"/>
	<path class="st0" d="M546.1,353c-0.8,0.9-1.6,1.8-2.5,2.8C524.9,377.2,510,403,500,431.1c-9.8-27.5-24.3-52.8-42.6-74
		c2.6-10.3,6.7-21.1,12.3-32.1c0,0-23.7,3.3-45.4-25.6c0,0,26.2,3.8,58.4-20.4c32.2-24.2,58-24.1,76.2-1.2c0,0,22.8-16.4,42.7,10.3
		C601.6,288,540.8,289.7,546.1,353z"/>
</g>
<linearGradient id="SVGID_1_" gradientUnits="userSpaceOnUse" x1="632.1039" y1="426.8234" x2="817.894" y2="177.7194">
	<stop  offset="0" style="stop-color:#60CAE6"/>
	<stop  offset="1" style="stop-color:#D0E8F8"/>
</linearGradient>
<path class="st1" d="M912.3,79.2C890.3,189,851.5,295,784.4,379.7c-14,17.8-29.4,34.7-46.1,50.5c-28.1,26.5-60,48.4-90.3,72.2
	c-7.7,6.1-15.4,12.2-22.8,18.7c-1.3,1.1-2.7,2.3-4.1,3.5c-11.2,9.9-22.1,20.7-31.9,32.2c-0.1,0.1-0.1,0.2-0.3,0.3
	c-23,26.9-40.6,58-45.5,92.7c-11.2-16.8-19.9-35-26.2-54.1c-15.3-46.3-16.4-97.4-3.1-144c8.6-30.4,23.4-58.9,44.4-82.8
	c40.3-46,97.4-72.9,152.5-99.5c1.1-0.5,2.2-1,3.3-1.6c42.5-20.6,85-42.2,121.3-72.4C872.1,165.1,894.2,127.8,912.3,79.2z"/>
<linearGradient id="SVGID_2_" gradientUnits="userSpaceOnUse" x1="472.9767" y1="598.0334" x2="903.3571" y2="251.8055">
	<stop  offset="0" style="stop-color:#804D9E"/>
	<stop  offset="1" style="stop-color:#93D5F5"/>
</linearGradient>
<path class="st2" d="M794.9,452.3c-24.2,19.2-50.8,34.6-78.4,48.3c-27.9,13.8-56.8,25.8-85.5,38.1c-4.7,2-9.4,4-14.2,6.1
	c-9.1,3.9-18.3,8-27.4,12.2c-0.1,0-0.2,0.1-0.4,0.1c-24.7,11.4-49,23.9-71.7,38.6c-15.3-46.3-16.4-97.4-3.1-144
	c12-10.3,25.4-19,39.8-25.8c8.9-4.2,18-7.7,27.2-10.5c50.7-16,106.5-15.6,159.4-25.5c14.1-2.6,28.9-5.8,43.8-10.2
	c51.5-15,103.1-43.4,119.6-108.1C909.6,338.5,847.5,410.6,794.9,452.3z"/>
<linearGradient id="SVGID_3_" gradientUnits="userSpaceOnUse" x1="529.1319" y1="471.3355" x2="674.8311" y2="594.6194">
	<stop  offset="0" style="stop-color:#EE1F60"/>
	<stop  offset="1" style="stop-color:#FAA53D"/>
</linearGradient>
<path class="st3" d="M510.8,499.4c35.7,9.5,60.7,37.5,85.4,65c13.9,15.5,30.2,31.6,46.1,44.9c12.4,10.4,25.8,19.2,40.9,24.8
	c-27.1-14.9-38.1-34.2-44.2-59.4c-6.1-25.2-8.7-52.5-24.6-73c-6.4-8.2-14.8-14.9-24.2-19.3c-8.4-4-17.7-6.3-27-6.5
	C543.4,475.5,523.6,484.3,510.8,499.4z"/>
<linearGradient id="SVGID_4_" gradientUnits="userSpaceOnUse" x1="475.6269" y1="632.2042" x2="475.6269" y2="875.1425">
	<stop  offset="0" style="stop-color:#60CAE6"/>
	<stop  offset="1" style="stop-color:#D0E8F8"/>
</linearGradient>
<path class="st4" d="M497.5,620.7L497.5,620.7c0,0-64.3,89.7-44.6,156s40.5,111.2,31.9,144.1c0,0,23-35.9,16-96.1
	S487.1,655.6,497.5,620.7z"/>
<linearGradient id="SVGID_5_" gradientUnits="userSpaceOnUse" x1="507.0135" y1="612.5424" x2="507.0135" y2="918.9066">
	<stop  offset="0" style="stop-color:#EE1F60"/>
	<stop  offset="1" style="stop-color:#FAA53D"/>
</linearGradient>
<path class="st5" d="M497.5,620.7c0,0-43.7,61.1-14,144.7s32.4,89.7,30.4,113.3c0,0,19.6-40.5,26.3-89
	C547,741.1,498.6,689.1,497.5,620.7z"/>
<linearGradient id="SVGID_6_" gradientUnits="userSpaceOnUse" x1="587.5256" y1="426.8234" x2="773.3157" y2="177.7194" gradientTransform="matrix(-1 0 0 1 955.4216 0)">
	<stop  offset="0" style="stop-color:#60CAE6"/>
	<stop  offset="1" style="stop-color:#D0E8F8"/>
</linearGradient>
<path class="st6" d="M87.7,79.2c22,109.8,60.8,215.9,127.9,300.6c14,17.8,29.4,34.7,46.1,50.5c28.1,26.5,60,48.4,90.3,72.2
	c7.7,6.1,15.4,12.2,22.8,18.7c1.3,1.1,2.7,2.3,4.1,3.5c11.2,9.9,22.1,20.7,31.9,32.2c0.1,0.1,0.1,0.2,0.3,0.3
	c23,26.9,40.6,58,45.5,92.7c11.2-16.8,19.9-35,26.2-54.1c15.3-46.3,16.4-97.4,3.1-144c-8.6-30.4-23.4-58.9-44.4-82.8
	c-40.3-46-97.4-72.9-152.5-99.5c-1.1-0.5-2.2-1-3.3-1.6c-42.5-20.6-85-42.2-121.3-72.4C127.9,165.1,105.8,127.8,87.7,79.2z"/>
<linearGradient id="SVGID_7_" gradientUnits="userSpaceOnUse" x1="428.3984" y1="598.0334" x2="858.7788" y2="251.8055" gradientTransform="matrix(-1 0 0 1 955.4216 0)">
	<stop  offset="0" style="stop-color:#804D9E"/>
	<stop  offset="1" style="stop-color:#93D5F5"/>
</linearGradient>
<path class="st7" d="M205.1,452.3c24.2,19.2,50.8,34.6,78.4,48.3c27.9,13.8,56.8,25.8,85.5,38.1c4.7,2,9.4,4,14.2,6.1
	c9.1,3.9,18.3,8,27.4,12.2c0.1,0,0.2,0.1,0.4,0.1c24.7,11.4,49,23.9,71.7,38.6c15.3-46.3,16.4-97.4,3.1-144
	c-12-10.3-25.4-19-39.8-25.8c-8.9-4.2-18-7.7-27.2-10.5c-50.7-16-106.5-15.6-159.4-25.5c-14.1-2.6-28.9-5.8-43.8-10.2
	c-51.5-15-103.1-43.4-119.6-108.1C90.4,338.5,152.5,410.6,205.1,452.3z"/>
<linearGradient id="SVGID_8_" gradientUnits="userSpaceOnUse" x1="484.5536" y1="471.3355" x2="630.2527" y2="594.6194" gradientTransform="matrix(-1 0 0 1 955.4216 0)">
	<stop  offset="0" style="stop-color:#EE1F60"/>
	<stop  offset="1" style="stop-color:#FAA53D"/>
</linearGradient>
<path class="st8" d="M489.2,499.4c-35.7,9.5-60.7,37.5-85.4,65c-13.9,15.5-30.2,31.6-46.1,44.9c-12.4,10.4-25.8,19.2-40.9,24.8
	c27.1-14.9,38.1-34.2,44.2-59.4c6.1-25.2,8.7-52.5,24.6-73c6.4-8.2,14.8-14.9,24.2-19.3c8.4-4,17.7-6.3,27-6.5
	C456.6,475.5,476.4,484.3,489.2,499.4z"/>
<linearGradient id="SVGID_9_" gradientUnits="userSpaceOnUse" x1="439.6907" y1="453.2219" x2="550.9852" y2="210.847">
	<stop  offset="0" style="stop-color:#EE1F60"/>
	<stop  offset="1" style="stop-color:#FAA53D"/>
</linearGradient>
<path class="st9" d="M546.1,353c-0.8,0.9-1.6,1.8-2.5,2.8C524.9,377.2,510,403,500,431.1c-9.8-27.5-24.3-52.8-42.6-74
	c2.6-10.3,6.7-21.1,12.3-32.1c0,0-23.7,3.3-45.4-25.6c0,0,26.2,3.8,58.4-20.4c32.2-24.2,58-24.1,76.2-1.2c0,0,22.8-16.4,42.7,10.3
	C601.6,288,540.8,289.7,546.1,353z"/>
</svg>
