<?xml version="1.0" encoding="utf-8"?>
<svg viewBox="0 0 500 500" xmlns="http://www.w3.org/2000/svg">
  <linearGradient id="SVGID_1_" gradientUnits="userSpaceOnUse" x1="632.1039" y1="426.8234" x2="817.894" y2="177.7194" gradientTransform="matrix(0.441718, 0, 0, 0.441718, 23.515651, 14.665304)">
    <stop offset="0" style="stop-color:#60CAE6"/>
    <stop offset="1" style="stop-color:#D0E8F8"/>
  </linearGradient>
  <linearGradient id="SVGID_2_" gradientUnits="userSpaceOnUse" x1="472.9767" y1="598.0334" x2="903.3571" y2="251.8055" gradientTransform="matrix(0.441718, 0, 0, 0.441718, 23.515651, 14.665304)">
    <stop offset="0" style="stop-color:#804D9E"/>
    <stop offset="1" style="stop-color:#93D5F5"/>
  </linearGradient>
  <linearGradient id="SVGID_3_" gradientUnits="userSpaceOnUse" x1="529.1319" y1="471.3355" x2="674.8311" y2="594.6194" gradientTransform="matrix(0.441718, 0, 0, 0.441718, 23.515651, 14.665304)">
    <stop offset="0" style="stop-color:#EE1F60"/>
    <stop offset="1" style="stop-color:#FAA53D"/>
  </linearGradient>
  <linearGradient id="SVGID_4_" gradientUnits="userSpaceOnUse" x1="475.6269" y1="632.2042" x2="475.6269" y2="875.1425" gradientTransform="matrix(0.441718, 0, 0, 0.441718, 23.515651, 14.665304)">
    <stop offset="0" style="stop-color:#60CAE6"/>
    <stop offset="1" style="stop-color:#D0E8F8"/>
  </linearGradient>
  <linearGradient id="SVGID_5_" gradientUnits="userSpaceOnUse" x1="507.0135" y1="612.5424" x2="507.0135" y2="918.9066" gradientTransform="matrix(0.441718, 0, 0, 0.441718, 23.515651, 14.665304)">
    <stop offset="0" style="stop-color:#EE1F60"/>
    <stop offset="1" style="stop-color:#FAA53D"/>
  </linearGradient>
  <linearGradient id="SVGID_6_" gradientUnits="userSpaceOnUse" x1="587.5256" y1="426.8234" x2="773.3157" y2="177.7194" gradientTransform="matrix(-0.441718, 0, 0, 0.441718, 445.542138, 14.665304)">
    <stop offset="0" style="stop-color:#60CAE6"/>
    <stop offset="1" style="stop-color:#D0E8F8"/>
  </linearGradient>
  <linearGradient id="SVGID_7_" gradientUnits="userSpaceOnUse" x1="428.3984" y1="598.0334" x2="858.7788" y2="251.8055" gradientTransform="matrix(-0.441718, 0, 0, 0.441718, 445.542138, 14.665304)">
    <stop offset="0" style="stop-color:#804D9E"/>
    <stop offset="1" style="stop-color:#93D5F5"/>
  </linearGradient>
  <linearGradient id="SVGID_8_" gradientUnits="userSpaceOnUse" x1="484.5536" y1="471.3355" x2="630.2527" y2="594.6194" gradientTransform="matrix(-0.441718, 0, 0, 0.441718, 445.542138, 14.665304)">
    <stop offset="0" style="stop-color:#EE1F60"/>
    <stop offset="1" style="stop-color:#FAA53D"/>
  </linearGradient>
  <linearGradient id="SVGID_9_" gradientUnits="userSpaceOnUse" x1="439.6907" y1="453.2219" x2="550.9852" y2="210.847" gradientTransform="matrix(0.441718, 0, 0, 0.441718, 23.515651, 14.665304)">
    <stop offset="0" style="stop-color:#EE1F60"/>
    <stop offset="1" style="stop-color:#FAA53D"/>
  </linearGradient>
  <g transform="matrix(0.441718, 0, 0, 0.441718, 23.515656, 14.665304)" style="">
    <path class="st0" d="M912.3,79.2C890.3,189,851.5,295,784.4,379.7c-14,17.8-29.4,34.7-46.1,50.5c-28.1,26.5-60,48.4-90.3,72.2 c-7.7,6.1-15.4,12.2-22.8,18.7c-1.3,1.1-2.7,2.3-4.1,3.5c-11.2,9.9-22.1,20.7-31.9,32.2c-0.1,0.1-0.1,0.2-0.3,0.3 c-23,26.9-40.6,58-45.5,92.7c-11.2-16.8-19.9-35-26.2-54.1c-15.3-46.3-16.4-97.4-3.1-144c8.6-30.4,23.4-58.9,44.4-82.8 c40.3-46,97.4-72.9,152.5-99.5c1.1-0.5,2.2-1,3.3-1.6c42.5-20.6,85-42.2,121.3-72.4C872.1,165.1,894.2,127.8,912.3,79.2z" style="fill: rgb(255, 255, 255); fill-opacity: 0;"/>
    <path class="st0" d="M794.9,452.3c-24.2,19.2-50.8,34.6-78.4,48.3c-27.9,13.8-56.8,25.8-85.5,38.1c-4.7,2-9.4,4-14.2,6.1 c-9.1,3.9-18.3,8-27.4,12.2c-0.1,0-0.2,0.1-0.4,0.1c-24.7,11.4-49,23.9-71.7,38.6c-15.3-46.3-16.4-97.4-3.1-144 c12-10.3,25.4-19,39.8-25.8c8.9-4.2,18-7.7,27.2-10.5c50.7-16,106.5-15.6,159.4-25.5c14.1-2.6,28.9-5.8,43.8-10.2 c51.5-15,103.1-43.4,119.6-108.1C909.6,338.5,847.5,410.6,794.9,452.3z" style="fill: rgb(255, 255, 255); fill-opacity: 0;"/>
    <path class="st0" d="M510.8,499.4c35.7,9.5,60.7,37.5,85.4,65c13.9,15.5,30.2,31.6,46.1,44.9c12.4,10.4,25.8,19.2,40.9,24.8 c-27.1-14.9-38.1-34.2-44.2-59.4c-6.1-25.2-8.7-52.5-24.6-73c-6.4-8.2-14.8-14.9-24.2-19.3c-8.4-4-17.7-6.3-27-6.5 C543.4,475.5,523.6,484.3,510.8,499.4z" style="fill: rgb(255, 255, 255); fill-opacity: 0;"/>
    <path class="st0" d="M497.5,620.7L497.5,620.7c0,0-64.3,89.7-44.6,156s40.5,111.2,31.9,144.1c0,0,23-35.9,16-96.1 S487.1,655.6,497.5,620.7z" style="fill: rgb(255, 255, 255); fill-opacity: 0;"/>
    <path class="st0" d="M497.5,620.7c0,0-43.7,61.1-14,144.7s32.4,89.7,30.4,113.3c0,0,19.6-40.5,26.3-89 C547,741.1,498.6,689.1,497.5,620.7z" style="fill: rgb(255, 255, 255); fill-opacity: 0;"/>
    <path class="st0" d="M87.7,79.2c22,109.8,60.8,215.9,127.9,300.6c14,17.8,29.4,34.7,46.1,50.5c28.1,26.5,60,48.4,90.3,72.2 c7.7,6.1,15.4,12.2,22.8,18.7c1.3,1.1,2.7,2.3,4.1,3.5c11.2,9.9,22.1,20.7,31.9,32.2c0.1,0.1,0.1,0.2,0.3,0.3 c23,26.9,40.6,58,45.5,92.7c11.2-16.8,19.9-35,26.2-54.1c15.3-46.3,16.4-97.4,3.1-144c-8.6-30.4-23.4-58.9-44.4-82.8 c-40.3-46-97.4-72.9-152.5-99.5c-1.1-0.5-2.2-1-3.3-1.6c-42.5-20.6-85-42.2-121.3-72.4C127.9,165.1,105.8,127.8,87.7,79.2z" style="fill: rgb(255, 255, 255); fill-opacity: 0;"/>
    <path class="st0" d="M205.1,452.3c24.2,19.2,50.8,34.6,78.4,48.3c27.9,13.8,56.8,25.8,85.5,38.1c4.7,2,9.4,4,14.2,6.1 c9.1,3.9,18.3,8,27.4,12.2c0.1,0,0.2,0.1,0.4,0.1c24.7,11.4,49,23.9,71.7,38.6c15.3-46.3,16.4-97.4,3.1-144 c-12-10.3-25.4-19-39.8-25.8c-8.9-4.2-18-7.7-27.2-10.5c-50.7-16-106.5-15.6-159.4-25.5c-14.1-2.6-28.9-5.8-43.8-10.2 c-51.5-15-103.1-43.4-119.6-108.1C90.4,338.5,152.5,410.6,205.1,452.3z" style="fill: rgb(255, 255, 255); fill-opacity: 0;"/>
    <path class="st0" d="M489.2,499.4c-35.7,9.5-60.7,37.5-85.4,65c-13.9,15.5-30.2,31.6-46.1,44.9c-12.4,10.4-25.8,19.2-40.9,24.8 c27.1-14.9,38.1-34.2,44.2-59.4c6.1-25.2,8.7-52.5,24.6-73c6.4-8.2,14.8-14.9,24.2-19.3c8.4-4,17.7-6.3,27-6.5 C456.6,475.5,476.4,484.3,489.2,499.4z" style="fill: rgb(255, 255, 255); fill-opacity: 0;"/>
    <path class="st0" d="M546.1,353c-0.8,0.9-1.6,1.8-2.5,2.8C524.9,377.2,510,403,500,431.1c-9.8-27.5-24.3-52.8-42.6-74 c2.6-10.3,6.7-21.1,12.3-32.1c0,0-23.7,3.3-45.4-25.6c0,0,26.2,3.8,58.4-20.4c32.2-24.2,58-24.1,76.2-1.2c0,0,22.8-16.4,42.7,10.3 C601.6,288,540.8,289.7,546.1,353z" style="fill: rgb(255, 255, 255); fill-opacity: 0;"/>
  </g>
  <path class="st1" d="M 426.495 49.649 C 416.777 98.15 399.639 144.972 369.999 182.386 C 363.815 190.248 357.013 197.713 349.636 204.692 C 337.224 216.398 323.133 226.071 309.749 236.584 C 306.348 239.279 302.947 241.973 299.678 244.844 C 299.104 245.33 298.485 245.86 297.867 246.39 C 292.92 250.763 288.105 255.534 283.776 260.614 C 283.732 260.658 283.732 260.702 283.644 260.746 C 273.484 272.628 265.71 286.366 263.545 301.693 C 258.598 294.273 254.755 286.233 251.972 277.797 C 245.214 257.345 244.728 234.773 250.603 214.189 C 254.402 200.761 260.939 188.172 270.215 177.615 C 288.017 157.296 313.239 145.414 337.577 133.664 C 338.063 133.443 338.549 133.222 339.035 132.957 C 357.808 123.858 376.581 114.317 392.615 100.977 C 408.738 87.593 418.5 71.117 426.495 49.649 Z" style="fill: url(#SVGID_1_); stroke-width: 5px; stroke: rgb(255, 255, 255); fill-opacity: 0;"/>
  <path class="st2" d="M 374.637 214.454 C 363.948 222.935 352.198 229.738 340.007 235.789 C 327.683 241.885 314.917 247.186 302.24 252.619 C 300.164 253.502 298.088 254.386 295.967 255.313 C 291.948 257.036 287.884 258.847 283.864 260.702 C 283.82 260.702 283.776 260.746 283.688 260.746 C 272.777 265.782 262.044 271.303 252.017 277.797 C 245.258 257.345 244.772 234.773 250.647 214.189 C 255.948 209.64 261.867 205.797 268.228 202.793 C 272.159 200.938 276.179 199.392 280.242 198.155 C 302.637 191.087 327.285 191.264 350.652 186.891 C 356.88 185.743 363.418 184.329 369.999 182.386 C 392.748 175.76 415.54 163.215 422.829 134.636 C 425.302 164.187 397.872 196.035 374.637 214.454 Z" style="fill: url(#SVGID_2_); stroke-width: 5px; stroke: rgb(255, 255, 255); fill-opacity: 0;"/>
  <path class="st3" d="M 249.145 235.259 C 264.915 239.455 275.958 251.824 286.868 263.971 C 293.008 270.817 300.208 277.929 307.231 283.804 C 312.709 288.398 318.628 292.285 325.297 294.759 C 313.327 288.177 308.468 279.652 305.774 268.521 C 303.079 257.389 301.931 245.33 294.907 236.275 C 292.08 232.653 288.37 229.694 284.218 227.75 C 280.507 225.983 276.399 224.967 272.291 224.879 C 263.545 224.702 254.799 228.589 249.145 235.259 Z" style="fill: url(#SVGID_3_); stroke-width: 5px; stroke: rgb(255, 255, 255); fill-opacity: 0;"/>
  <path class="st4" d="M 243.271 288.84 L 243.271 288.84 C 243.271 288.84 214.868 328.462 223.57 357.747 C 232.272 387.033 241.46 406.866 237.661 421.399 C 237.661 421.399 247.82 405.541 244.728 378.95 C 241.636 352.358 238.677 304.255 243.271 288.84 Z" style="fill: url(#SVGID_4_); stroke-width: 5px; stroke: rgb(255, 255, 255); fill-opacity: 0;"/>
  <path class="st5" d="M 243.271 288.84 C 243.271 288.84 223.967 315.828 237.086 352.756 C 250.206 389.684 251.398 392.378 250.515 402.803 C 250.515 402.803 259.172 384.913 262.132 363.49 C 265.136 342.022 243.756 319.053 243.271 288.84 Z" style="fill: url(#SVGID_5_); stroke-width: 5px; stroke: rgb(255, 255, 255); fill-opacity: 0;"/>
  <path class="st6" d="M 62.255 49.649 C 71.972 98.15 89.111 145.016 118.75 182.43 C 124.934 190.292 131.737 197.757 139.114 204.736 C 151.526 216.442 165.617 226.116 179.001 236.628 C 182.402 239.323 185.803 242.017 189.072 244.889 C 189.646 245.375 190.264 245.905 190.883 246.435 C 195.83 250.808 200.645 255.578 204.974 260.658 C 205.018 260.702 205.018 260.746 205.106 260.79 C 215.266 272.673 223.04 286.41 225.204 301.738 C 230.152 294.317 233.994 286.278 236.777 277.841 C 243.536 257.389 244.021 234.817 238.147 214.233 C 234.348 200.805 227.81 188.216 218.534 177.659 C 200.733 157.34 175.511 145.458 151.172 133.708 C 150.687 133.487 150.201 133.267 149.715 133.002 C 130.942 123.902 112.169 114.361 96.134 101.021 C 80.012 87.593 70.25 71.117 62.255 49.649 Z" style="fill: url(#SVGID_6_); stroke-width: 5px; stroke: rgb(255, 255, 255); fill-opacity: 0;"/>
  <path class="st7" d="M 114.112 214.454 C 124.802 222.935 136.552 229.738 148.743 235.789 C 161.067 241.885 173.833 247.186 186.51 252.619 C 188.586 253.502 190.662 254.386 192.782 255.313 C 196.802 257.036 200.866 258.847 204.885 260.702 C 204.929 260.702 204.974 260.746 205.062 260.746 C 215.972 265.782 226.706 271.303 236.733 277.797 C 243.491 257.345 243.977 234.773 238.102 214.189 C 232.802 209.64 226.883 205.797 220.522 202.793 C 216.591 200.938 212.571 199.392 208.507 198.155 C 186.112 191.087 161.464 191.264 138.098 186.891 C 131.869 185.743 125.332 184.329 118.75 182.386 C 96.002 175.76 73.209 163.215 65.921 134.636 C 63.447 164.187 90.878 196.035 114.112 214.454 Z" style="fill: url(#SVGID_7_); stroke-width: 5px; stroke: rgb(255, 255, 255); fill-opacity: 0;"/>
  <path class="st8" d="M 239.604 235.259 C 223.835 239.455 212.792 251.824 201.882 263.971 C 195.742 270.817 188.542 277.929 181.518 283.804 C 176.041 288.398 170.122 292.285 163.452 294.759 C 175.423 288.177 180.282 279.652 182.976 268.521 C 185.671 257.389 186.819 245.33 193.842 236.275 C 196.669 232.653 200.38 229.694 204.532 227.75 C 208.242 225.983 212.35 224.967 216.458 224.879 C 225.204 224.702 233.95 228.589 239.604 235.259 Z" style="fill: url(#SVGID_8_); stroke-width: 5px; stroke: rgb(255, 255, 255); fill-opacity: 0;"/>
  <path class="st9" d="M 264.738 170.592 C 264.385 170.989 264.031 171.387 263.634 171.829 C 255.374 181.281 248.792 192.678 244.375 205.09 C 240.046 192.943 233.641 181.767 225.558 172.403 C 226.706 167.853 228.517 163.083 230.991 158.224 C 230.991 158.224 220.522 159.681 210.937 146.916 C 210.937 146.916 222.51 148.594 236.733 137.905 C 250.956 127.215 262.353 127.259 270.392 137.375 C 270.392 137.375 280.463 130.13 289.253 141.924 C 289.253 141.88 262.397 142.631 264.738 170.592 Z" style="fill: url(#SVGID_9_); stroke-width: 5px; stroke: rgb(255, 255, 255); fill-opacity: 0;"/>
</svg>