<svg xmlns="http://www.w3.org/2000/svg" xmlns:xlink="http://www.w3.org/1999/xlink" viewBox="0 0 834.91 167.71"><defs><style>.cls-1{fill:none;}.cls-2{isolation:isolate;}.cls-3{fill:#fff;}.cls-4{clip-path:url(#clip-path);}.cls-5{clip-path:url(#clip-path-3);}.cls-6{fill:url(#Dégradé_sans_nom_6);}.cls-7{mix-blend-mode:multiply;}.cls-8{clip-path:url(#clip-path-5);}.cls-9{clip-path:url(#clip-path-6);}.cls-10{fill:url(#Dégradé_sans_nom_7);}.cls-11{clip-path:url(#clip-path-7);}.cls-12{clip-path:url(#clip-path-8);}.cls-13{fill:url(#Dégradé_sans_nom_9);}.cls-14{clip-path:url(#clip-path-9);}.cls-15{fill:url(#Dégradé_sans_nom_6-2);}.cls-16{clip-path:url(#clip-path-11);}.cls-17{clip-path:url(#clip-path-12);}.cls-18{fill:url(#Dégradé_sans_nom_9-2);}.cls-19{clip-path:url(#clip-path-13);}.cls-20{fill:url(#Dégradé_sans_nom_6-3);}.cls-21{clip-path:url(#clip-path-15);}.cls-22{clip-path:url(#clip-path-16);}.cls-23{fill:url(#Dégradé_sans_nom_7-2);}.cls-24{clip-path:url(#clip-path-17);}.cls-25{clip-path:url(#clip-path-18);}.cls-26{fill:url(#Dégradé_sans_nom_9-3);}.cls-27{clip-path:url(#clip-path-19);}.cls-28{clip-path:url(#clip-path-20);}.cls-29{fill:url(#Dégradé_sans_nom_9-4);}</style><clipPath id="clip-path" transform="translate(0 19.05)"><rect class="cls-1" x="643.47" width="161.45" height="161.45"/></clipPath><clipPath id="clip-path-3" transform="translate(0 19.05)"><path class="cls-1" d="M778.4,31.54c-5.86,4.89-12.72,8.37-19.58,11.69l-.54.26c-8.89,4.3-18.12,8.64-24.62,16.07a34.46,34.46,0,0,0-7.17,13.37,39.93,39.93,0,0,0,.5,23.24,36,36,0,0,0,4.24,8.74c.79-5.6,3.63-10.63,7.34-15,0,0,0,0,0,0a50.58,50.58,0,0,1,5.15-5.2l.65-.57q1.8-1.56,3.68-3c4.9-3.85,10-7.39,14.58-11.67a74.24,74.24,0,0,0,7.43-8.15c10.84-13.67,17.1-30.79,20.65-48.52-2.93,7.85-6.5,13.88-12.36,18.76"/></clipPath><linearGradient id="Dégradé_sans_nom_6" x1="-52.02" y1="-484.33" x2="-51.86" y2="-484.33" gradientTransform="matrix(310.76, 0, 0, -310.76, 16908.08, -150449.46)" gradientUnits="userSpaceOnUse"><stop offset="0" stop-color="#72cae8"/><stop offset="1" stop-color="#dcedfb"/></linearGradient><clipPath id="clip-path-5" transform="translate(0 19.05)"><rect class="cls-1" x="725" y="43.86" width="64.48" height="52.31"/></clipPath><clipPath id="clip-path-6" transform="translate(0 19.05)"><path class="cls-1" d="M771.8,73a70.83,70.83,0,0,1-12.65,7.81C754.64,83.06,750,85,745.34,87l-2.29,1c-1.47.63-2.95,1.29-4.42,2,0,0,0,0-.06,0A92,92,0,0,0,727,96.17a39.93,39.93,0,0,1-.5-23.24,29,29,0,0,1,6.42-4.17,36.29,36.29,0,0,1,4.4-1.7C745.5,64.47,754.5,64.54,763,63a69.5,69.5,0,0,0,7.07-1.65c8.32-2.41,16.65-7,19.32-17.44.89,10.8-9.13,22.43-17.63,29.16"/></clipPath><linearGradient id="Dégradé_sans_nom_7" x1="-50.13" y1="-483.46" x2="-49.97" y2="-483.46" gradientTransform="matrix(552.36, 0, 0, -552.36, 28400.89, -266971.54)" gradientUnits="userSpaceOnUse"><stop offset="0" stop-color="#844493"/><stop offset="1" stop-color="#a5d9f7"/></linearGradient><clipPath id="clip-path-7" transform="translate(0 19.05)"><rect class="cls-1" x="725.93" y="76.83" width="27.84" height="25.55"/></clipPath><clipPath id="clip-path-8" transform="translate(0 19.05)"><path class="cls-1" d="M725.93,80.63c5.77,1.52,9.81,6.05,13.79,10.49a74.88,74.88,0,0,0,7.44,7.25,22.59,22.59,0,0,0,6.61,4,13.58,13.58,0,0,1-7.14-9.6c-1-4.06-1.4-8.48-4-11.78a10.92,10.92,0,0,0-3.92-3.12,10.79,10.79,0,0,0-4.36-1,10.93,10.93,0,0,0-8.46,3.8"/></clipPath><linearGradient id="Dégradé_sans_nom_9" x1="-44.76" y1="-485.25" x2="-44.6" y2="-485.25" gradientTransform="matrix(0, 190.86, 190.86, 0, 93354.42, 8615.55)" gradientUnits="userSpaceOnUse"><stop offset="0" stop-color="#e60e56"/><stop offset="1" stop-color="#f7a630"/></linearGradient><clipPath id="clip-path-9" transform="translate(0 19.05)"><path class="cls-1" d="M716.59,125.4c3.18,10.7,6.53,18,5.15,23.27,0,0,3.72-5.8,2.58-15.52s-2.21-27.3-.53-32.94c0,0-10.38,14.49-7.2,25.19"/></clipPath><linearGradient id="Dégradé_sans_nom_6-2" x1="-45.52" y1="-480.52" x2="-45.36" y2="-480.52" gradientTransform="matrix(0, 242.94, 242.94, 0, 117457.33, 11179.15)" xlink:href="#Dégradé_sans_nom_6"/><clipPath id="clip-path-11" transform="translate(0 19.05)"><rect class="cls-1" x="719.86" y="100.21" width="10.93" height="41.66"/></clipPath><clipPath id="clip-path-12" transform="translate(0 19.05)"><path class="cls-1" d="M723.79,100.21a26.64,26.64,0,0,0-2.26,23.36c4.8,13.51,5.24,14.49,4.91,18.3a54.23,54.23,0,0,0,4.25-14.38c1.08-7.84-6.72-16.23-6.9-27.28"/></clipPath><linearGradient id="Dégradé_sans_nom_9-2" x1="-46.27" y1="-480.86" x2="-46.11" y2="-480.86" gradientTransform="matrix(0, 306.36, 306.36, 0, 148043.01, 14294.94)" xlink:href="#Dégradé_sans_nom_9"/><clipPath id="clip-path-13" transform="translate(0 19.05)"><path class="cls-1" d="M678.28,61.3a74.24,74.24,0,0,0,7.43,8.15c4.53,4.28,9.68,7.82,14.58,11.67,1.24,1,2.48,2,3.68,3l.65.57a51.61,51.61,0,0,1,5.15,5.2l.05,0c3.71,4.33,6.55,9.36,7.34,15a36,36,0,0,0,4.23-8.74,39.94,39.94,0,0,0,.51-23.24,34.72,34.72,0,0,0-7.17-13.37c-6.51-7.43-15.73-11.77-24.62-16.07l-.54-.26c-6.86-3.32-13.72-6.8-19.58-11.69s-9.43-10.91-12.36-18.76c3.55,17.73,9.81,34.85,20.65,48.52"/></clipPath><linearGradient id="Dégradé_sans_nom_6-3" x1="-53.07" y1="-482.91" x2="-52.91" y2="-482.91" gradientTransform="translate(150760.46 -16418.88) rotate(-90) scale(310.76)" xlink:href="#Dégradé_sans_nom_6"/><clipPath id="clip-path-15" transform="translate(0 19.05)"><rect class="cls-1" x="658.91" y="43.86" width="64.48" height="52.31"/></clipPath><clipPath id="clip-path-16" transform="translate(0 19.05)"><path class="cls-1" d="M676.58,73a71.27,71.27,0,0,0,12.66,7.81c4.51,2.23,9.18,4.17,13.81,6.14l2.29,1c1.47.63,2.95,1.29,4.42,2l.06,0a91.14,91.14,0,0,1,11.57,6.22,39.94,39.94,0,0,0,.51-23.24,28.83,28.83,0,0,0-6.43-4.17,35.53,35.53,0,0,0-4.39-1.7c-8.19-2.59-17.19-2.52-25.73-4.11a69.5,69.5,0,0,1-7.07-1.65c-8.32-2.41-16.65-7-19.32-17.44-.9,10.8,9.13,22.43,17.62,29.16"/></clipPath><linearGradient id="Dégradé_sans_nom_7-2" x1="-50.9" y1="-482.84" x2="-50.74" y2="-482.84" gradientTransform="matrix(0, -552.36, 552.36, 0, 267389.58, -27999.93)" xlink:href="#Dégradé_sans_nom_7"/><clipPath id="clip-path-17" transform="translate(0 19.05)"><rect class="cls-1" x="694.62" y="76.83" width="27.84" height="25.55"/></clipPath><clipPath id="clip-path-18" transform="translate(0 19.05)"><path class="cls-1" d="M722.46,80.63c-5.77,1.52-9.81,6.05-13.79,10.49a74.88,74.88,0,0,1-7.44,7.25,22.72,22.72,0,0,1-6.61,4,13.54,13.54,0,0,0,7.13-9.6c1-4.06,1.41-8.48,4-11.78a10.79,10.79,0,0,1,16.74-.37"/></clipPath><linearGradient id="Dégradé_sans_nom_9-3" x1="-46.95" y1="-487.1" x2="-46.79" y2="-487.1" gradientTransform="matrix(-190.86, 0, 0, -190.86, -8235.23, -92878.5)" xlink:href="#Dégradé_sans_nom_9"/><clipPath id="clip-path-19" transform="translate(0 19.05)"><rect class="cls-1" x="711.97" y="42.09" width="28.63" height="27.5"/></clipPath><clipPath id="clip-path-20" transform="translate(0 19.05)"><path class="cls-1" d="M731.64,57l-.4.45a37.77,37.77,0,0,0-7,12.15,37.8,37.8,0,0,0-6.87-11.94,24.82,24.82,0,0,1,2-5.19s-3.82.54-7.33-4.13c0,0,4.23.62,9.43-3.29s9.36-3.89,12.3-.2c0,0,3.68-2.65,6.9,1.66,0,0-9.81.27-9,10.49"/></clipPath><linearGradient id="Dégradé_sans_nom_9-4" x1="-52.68" y1="-484.57" x2="-52.52" y2="-484.57" gradientTransform="matrix(266.71, 0, 0, -266.71, 14755.63, -129183.07)" xlink:href="#Dégradé_sans_nom_9"/></defs><g class="cls-2"><g id="Calque_2" data-name="Calque 2"><g id="Layer_1" data-name="Layer 1"><path class="cls-3" d="M27.87,36H18.71V68.59h26v8.67h-26v37.28H58.13v8.67H0v-96H58.38V36Z" transform="translate(0 19.05)"/><path class="cls-3" d="M73.57,123.33v-96H92.14v87.25H142v8.79Z" transform="translate(0 19.05)"/><path class="cls-3" d="M181.78,36h-9.17V68.59h26v8.67h-26v37.28H212v8.67H153.91v-96h58.38V36Z" transform="translate(0 19.05)"/><path class="cls-3" d="M298.91,59.18l-27,64.15h-7.66L233,51.65l-.88-1.89c-.5-1.13-1.13-2.63-1.88-4.52-.51-1.25-1.13-2.63-1.63-3.64l-6.16-14.31h19.21l8.54,18.83,22.85,52.73,17.7-42.68c1.25-3,2.26-5.65,3-7.79l8.29-21.09h10.42Z" transform="translate(0 19.05)"/><path class="cls-3" d="M536.34,110.52a32.76,32.76,0,0,1-13.05,9.42,49.4,49.4,0,0,1-18.84,3.39c-8.28,0-15.44-1.51-21.34-4.39s-10.29-6.78-12.93-11.68-4.14-11.17-3.64-18.7l.63-9.17V27.29h18.45v52.6c0,4.77,0,8.92.13,12.43a50.26,50.26,0,0,0,.63,7.66,14.63,14.63,0,0,0,6,9c3.52,2.64,8.54,4,15.07,4a32,32,0,0,0,13.68-2.77q6.4-2.82,9-6.78A19,19,0,0,0,534,95.33a88.6,88.6,0,0,0,1.25-14.81V27.29h8.67V81a103.22,103.22,0,0,1-1.39,17.33C541.74,102.74,539.23,106.89,536.34,110.52Z" transform="translate(0 19.05)"/><path class="cls-3" d="M588.69,123.21c-9.29-1-20.84-8-27.37-18.71l6.28-6.78c8.41,12.18,12.93,15.44,21,16.7,5.28.75,9.42-.51,12.43-3a13.18,13.18,0,0,0,5.28-9.16A12.11,12.11,0,0,0,603.63,93c-2.26-2.76-6.78-6.15-14.19-10.29A128.27,128.27,0,0,1,574.25,73a26.8,26.8,0,0,1-8-10.67,25,25,0,0,1-2-13.06,23.42,23.42,0,0,1,9.17-16.7c5.27-4,11.67-5.64,18.83-4.89a32.58,32.58,0,0,1,11,3.14c3.64,1.75,7,5,11.68,11.42l-7.28,6c-2.39-3.77-3-4.77-3.9-5.65a17,17,0,0,0-11.67-6.28c-4.65-.5-7.66.5-9.54,2.26a10.44,10.44,0,0,0-3.64,6.91,10.17,10.17,0,0,0,2.76,8.41q3.39,4.14,14.31,10.54c7.16,4.27,12.3,7.53,15.57,9.92a25,25,0,0,1,8,10.29,28.15,28.15,0,0,1,2,14.19,26.76,26.76,0,0,1-10.42,19.08C605,122.58,597.48,124.21,588.69,123.21Z" transform="translate(0 19.05)"/><path class="cls-3" d="M342.38,27.29h-6.27l-39.67,96h10.79l12.82-33.26,3.12-8.54,11.19-27.73,11.55,27.73,3.38,8.54,6.15,15s2.13,4.75,7.53,18.31h20.34Z" transform="translate(0 19.05)"/><path class="cls-3" d="M426.87,36H414.82v87.38H396.24V36H358.83l.25-8.66h93.41l.12,8.66Z" transform="translate(0 19.05)"/><g class="cls-4"><g class="cls-4"><g class="cls-5"><rect class="cls-6" x="700.77" y="4.69" width="113.56" height="108.32" transform="translate(257.47 649.96) rotate(-53.28)"/></g><g class="cls-4"><g class="cls-7"><g class="cls-8"><g class="cls-9"><rect class="cls-10" x="715.24" y="28.96" width="84.2" height="82.11" transform="translate(123.36 509.22) rotate(-38.82)"/></g></g></g><g class="cls-7"><g class="cls-11"><g class="cls-12"><rect class="cls-13" x="721.08" y="70.67" width="37.54" height="37.8" transform="translate(193.57 615.55) rotate(-49.76)"/></g></g></g></g><g class="cls-14"><rect class="cls-15" x="713.41" y="119.26" width="12.05" height="48.46"/></g><g class="cls-4"><g class="cls-7"><g class="cls-16"><g class="cls-17"><rect class="cls-18" x="716.74" y="119.26" width="15.04" height="41.66"/></g></g></g></g><g class="cls-19"><rect class="cls-20" x="636.68" y="2.07" width="108.32" height="113.56" transform="translate(101.88 443.74) rotate(-36.72)"/></g><g class="cls-4"><g class="cls-7"><g class="cls-21"><g class="cls-22"><rect class="cls-23" x="650" y="27.92" width="82.11" height="84.2" transform="translate(203.34 583.62) rotate(-51.18)"/></g></g></g><g class="cls-7"><g class="cls-24"><g class="cls-25"><rect class="cls-26" x="689.64" y="70.8" width="37.8" height="37.54" transform="translate(109.79 497.91) rotate(-40.24)"/></g></g></g><g class="cls-7"><g class="cls-27"><g class="cls-28"><rect class="cls-29" x="707.38" y="36.42" width="37.81" height="37.89" transform="translate(372.89 711.33) rotate(-65.34)"/></g></g></g></g></g></g></g></g></g></svg>