<svg xmlns="http://www.w3.org/2000/svg" viewBox="0 0 51.78 113.84"><defs><style>.cls-1{fill:#fff;}.cls-2,.cls-4,.cls-5,.cls-6{fill:#3f3f3f;}.cls-2{stroke:#1d1d1b;}.cls-2,.cls-3,.cls-4,.cls-5,.cls-6{stroke-miterlimit:10;}.cls-3{fill:none;stroke:#3f3f3f;}.cls-4,.cls-5{stroke:#fff;}.cls-5{stroke-width:0.75px;}.cls-6{stroke:#f3f3f3;}</style></defs><g id="Calque_2" data-name="Calque 2"><g id="rice_bowl_empty" data-name="rice bowl empty"><path class="cls-1" d="M28.59,85.08,28.74,83l1.94-.45s.7-1.77.76-1.82,2-.61,2-.61l.84-.12L36.34,79l2.13.94,2.92-.18,2,1.57,1.16.16,1,1.21h1l.8.9Z"/><ellipse class="cls-2" cx="32.81" cy="81.24" rx="0.04" ry="0.05"/><ellipse class="cls-2" cx="35.4" cy="80.41" rx="0.04" ry="0.05"/><ellipse class="cls-2" cx="34.44" cy="82.02" rx="0.04" ry="0.05"/><path class="cls-3" d="M28.31,83.4s0-1.32,2.23-.63c0,0-.05-3.17,3.58-2.63,0,0,2.15-2.72,4.44-.06a3.7,3.7,0,0,1,4.84,1.29,1.94,1.94,0,0,1,2.17,1.37s1.51-.39,1.56.73"/><circle class="cls-4" cx="17.67" cy="17.54" r="17.04"/><path class="cls-4" d="M51.26,83.65a16.11,16.11,0,0,1-8.48,7.8h.12v1.7H33.26v-1.7h.16A16,16,0,0,1,25,83.84c-.08-.14,0-.37.08-.36a105.82,105.82,0,0,0,13,.79,104.06,104.06,0,0,0,13.14-.81C51.27,83.45,51.3,83.58,51.26,83.65Z"/><polygon class="cls-4" points="17.67 111.58 34.71 36.31 0.63 36.31 17.67 111.58"/><rect class="cls-4" x="12.98" y="50.61" width="28.35" height="3.49" rx="1.28" transform="translate(-31.18 43.66) rotate(-54.11)"/><polyline class="cls-5" points="14.71 59.45 12.53 56.55 11.86 60.06 8.85 56.81"/><polyline class="cls-5" points="14.23 50.86 15.09 55.65 16.78 51.94 17.21 56.01"/><path class="cls-6" d="M10.36,29.28s.31-4.46,3.72-3.61,1.74,4.87,5.23,3.61c1.93-.7,2.36-4.53,6.18-1.75"/></g></g></svg>