<svg xmlns="http://www.w3.org/2000/svg" viewBox="0 0 56.53 110.28"><defs><style>.cls-1{fill:#5f7abb;}.cls-2{fill:#4e6994;}.cls-12,.cls-14,.cls-3,.cls-5{fill:none;}.cls-11,.cls-14,.cls-3,.cls-5{stroke:#3f3f3f;}.cls-11,.cls-14,.cls-3{stroke-miterlimit:10;}.cls-4{fill:#e8e8e8;}.cls-5{stroke-linejoin:round;}.cls-6{fill:#fab906;}.cls-11,.cls-7{font-size:10.3px;font-family:BerlinSansFBDemi-Bold, Berlin Sans FB Demi;font-weight:700;}.cls-7{fill:#e52421;}.cls-8{fill:#fff;}.cls-9{fill:#294d9d;}.cls-10{fill:#68b42e;}.cls-11{fill:#e52a26;}.cls-13{fill:#0b8a38;}.cls-14{stroke-linecap:round;stroke-width:1.25px;}</style></defs><g id="Calque_2" data-name="Calque 2"><g id="education"><circle class="cls-1" cx="19.19" cy="18.59" r="18.09"/><path class="cls-2" d="M3,10.66S2,31.72,22.79,36.49c0,0-10.85,1.87-17.66-6.53S2,11.94,3,10.66Z"/><polygon class="cls-1" points="19.19 108.38 37.73 40.52 0.66 40.52 19.19 108.38"/><polygon class="cls-2" points="6.06 58.61 24.26 88.49 19.24 106.84 6.06 58.61"/><circle class="cls-3" cx="19.19" cy="18.59" r="18.09"/><polygon class="cls-3" points="19.19 108.38 37.73 40.52 0.66 40.52 19.19 108.38"/><polygon class="cls-4" points="56.03 45.9 21.22 45.9 18.52 48.67 53.33 48.67 56.03 45.9"/><polygon class="cls-5" points="56.03 45.9 21.57 45.9 18.9 48.67 53.36 48.67 56.03 45.9"/><polygon class="cls-4" points="56.03 83.58 53.4 86.35 53.33 48.67 56.03 45.9 56.03 83.58"/><polygon class="cls-5" points="56.03 83.58 53.4 86.35 53.33 48.67 56.03 45.9 56.03 83.58"/><rect class="cls-6" x="18.9" y="48.67" width="34.67" height="37.86"/><text class="cls-7" transform="translate(23.47 60.53)">A<tspan class="cls-8" x="7.15" y="0"> </tspan><tspan class="cls-9" x="9.73" y="0">B</tspan><tspan class="cls-8" x="16.31" y="0"> </tspan><tspan class="cls-10" x="18.89" y="0">C</tspan></text><text class="cls-11" transform="translate(23.47 60.53)">A<tspan class="cls-12" x="7.15" y="0"> </tspan><tspan class="cls-1" x="9.73" y="0">B</tspan><tspan class="cls-12" x="16.31" y="0"> </tspan><tspan class="cls-13" x="18.89" y="0">C</tspan></text><rect class="cls-5" x="18.9" y="48.67" width="34.67" height="37.86"/><path class="cls-14" d="M31.1,27.44a23.55,23.55,0,0,1-11.91,3.2,23.62,23.62,0,0,1-11.9-3.28"/></g></g></svg>