<svg xmlns="http://www.w3.org/2000/svg" viewBox="0 0 83.5 99.18"><defs><style>.cls-1{fill:#fab906;}.cls-2{fill:#e0a50e;}.cls-3{fill:#e0a60d;}.cls-4,.cls-7,.cls-8{fill:none;}.cls-13,.cls-4,.cls-7{stroke:#3f3f3f;}.cls-13,.cls-4,.cls-7,.cls-8{stroke-miterlimit:10;}.cls-5{fill:#3f3f3f;}.cls-6{fill:#e52421;}.cls-7,.cls-8{stroke-linecap:round;}.cls-8{stroke:#107834;}.cls-9{fill:#0b8a37;}.cls-10{fill:#5f7abb;}.cls-11{fill:#b51917;}.cls-12{fill:#e52825;}.cls-13{fill:#e52a26;}</style></defs><g id="Calque_2" data-name="Calque 2"><g id="rice_bowl_full" data-name="rice bowl full"><path class="cls-1" d="M7,16.68A16.35,16.35,0,1,1,23.37,33,16.35,16.35,0,0,1,7,16.68"/><path class="cls-2" d="M9.42,8.11s-2,20.72,15.9,24.24c0,0-9.61,2.43-15.11-5.43S8.46,9.42,9.42,8.11Z"/><polyline class="cls-1" points="0.47 98.69 46.08 98.69 23.27 34.62 0.47 98.69"/><polyline class="cls-3" points="0.47 98.17 5.32 84.48 43.96 98.17"/><path class="cls-4" d="M7,16.85A16.35,16.35,0,1,1,23.37,33.2,16.35,16.35,0,0,1,7,16.85"/><polyline class="cls-4" points="0.47 98.69 46.08 98.69 23.27 36.12 0.47 98.69"/><rect class="cls-5" x="40.42" y="73.44" width="23.22" height="2.49"/><path class="cls-4" d="M35.15,63.34c.76-2.69,5-1.77,5-1.77s0-3.47,4.2-3.1c0,0-.05-2.72,3.64-2.26a3.08,3.08,0,0,1,4.52-.05s3-1.33,4.93,1.11c0,0,2.76-.6,2.67,2.08,0,0,3.17-.43,3.67,2.19a4,4,0,0,1,5.14,1.87"/><ellipse class="cls-6" cx="68.41" cy="62.39" rx="5.03" ry="3.95"/><ellipse class="cls-4" cx="68.41" cy="62.39" rx="5.03" ry="3.95"/><path class="cls-7" d="M64.87,62.39s-.42.85.74,1.7"/><path class="cls-7" d="M66.54,64.7s.26.33,1.23.33"/><path class="cls-8" d="M70.43,58.16c-.83-.1-1.27.49-1.76,1-.16.16-.26.28-.26.28s-.5-1.47-1.53-1.23"/><path class="cls-8" d="M68.41,59.18a6.42,6.42,0,0,1,.39-2"/><path class="cls-9" d="M79.91,63.84a1.52,1.52,0,0,1-.15.5,1.75,1.75,0,0,1-3.35-.85,1.45,1.45,0,0,1-1-.09,1.51,1.51,0,0,1-.83-1,1.57,1.57,0,0,1-1.63.19,1.61,1.61,0,0,1-.78-2.14,1.65,1.65,0,0,1,.86-.83,1.87,1.87,0,0,1,.14-.5,1.58,1.58,0,0,1,2.1-.78,1.17,1.17,0,0,1,.28.17,2,2,0,0,1,2-.16,2,2,0,0,1,1.06,1.18,1.41,1.41,0,0,1,1.32,1.62,1.63,1.63,0,0,1,.51,2A1.61,1.61,0,0,1,79.91,63.84Z"/><path class="cls-4" d="M79.91,63.84a1.52,1.52,0,0,1-.15.5,1.75,1.75,0,0,1-3.35-.85,1.45,1.45,0,0,1-1-.09,1.51,1.51,0,0,1-.83-1,1.57,1.57,0,0,1-1.63.19,1.61,1.61,0,0,1-.78-2.14,1.65,1.65,0,0,1,.86-.83,1.87,1.87,0,0,1,.14-.5,1.58,1.58,0,0,1,2.1-.78,1.17,1.17,0,0,1,.28.17,2,2,0,0,1,2-.16,2,2,0,0,1,1.06,1.18,1.41,1.41,0,0,1,1.32,1.62,1.63,1.63,0,0,1,.51,2A1.61,1.61,0,0,1,79.91,63.84Z"/><polygon class="cls-9" points="73.9 62.51 72.24 66.56 73.94 67.35 76.74 64.15 73.9 62.51"/><path class="cls-4" d="M79.91,63.84a1.52,1.52,0,0,1-.15.5,1.75,1.75,0,0,1-3.35-.85,1.45,1.45,0,0,1-1-.09,1.51,1.51,0,0,1-.83-1,1.57,1.57,0,0,1-1.63.19,1.61,1.61,0,0,1-.78-2.14,1.65,1.65,0,0,1,.86-.83,1.87,1.87,0,0,1,.14-.5,1.58,1.58,0,0,1,2.1-.78,1.17,1.17,0,0,1,.28.17,2,2,0,0,1,2-.16,2,2,0,0,1,1.06,1.18,1.41,1.41,0,0,1,1.32,1.62,1.63,1.63,0,0,1,.51,2A1.61,1.61,0,0,1,79.91,63.84Z"/><path class="cls-4" d="M73.44,62.86a7.87,7.87,0,0,1-1,3.78"/><path class="cls-4" d="M76.82,64.75s-.91-.66-2.95,2.57"/><path class="cls-4" d="M75.17,63.43s-.83,1.27-2,3.56"/><path class="cls-10" d="M39.71,66.27c-2.5,1.46-6.36,1.43-10-.35a13.28,13.28,0,0,1-3.82-2.77,9,9,0,0,1-2.56-4.9,9.19,9.19,0,0,1,5.63-1,13.49,13.49,0,0,1,4.34,1.31C36.94,60.37,39.33,63.4,39.71,66.27Z"/><path class="cls-10" d="M31.78,61.43S30.14,64,33.33,64.62h.1s.66-.64.42-2.58Z"/><polygon class="cls-10" points="33.65 58.76 36.51 58.44 38.27 60.16 36.65 60.88 33.65 58.76"/><polygon class="cls-10" points="30.14 66.12 30.77 67.83 33.4 68.62 33.39 67.13 30.14 66.12"/><polygon class="cls-10" points="39.23 64.36 43.02 63.19 40.88 66.84 40.16 69.86 37.88 67.13 39.23 64.36"/><path class="cls-10" d="M28.55,60.62a5.55,5.55,0,0,1-2.64,2.53,9,9,0,0,1-2.56-4.9,9.19,9.19,0,0,1,5.63-1A5.4,5.4,0,0,1,28.55,60.62Z"/><circle class="cls-10" cx="27.05" cy="58.98" r="0.61"/><path class="cls-4" d="M39.71,66.27c-2.5,1.46-6.36,1.43-10-.35a13.28,13.28,0,0,1-3.82-2.77,9,9,0,0,1-2.56-4.9,9.19,9.19,0,0,1,5.63-1,13.49,13.49,0,0,1,4.34,1.31C36.94,60.37,39.33,63.4,39.71,66.27Z"/><path class="cls-4" d="M31.78,61.43S30.14,64,33.33,64.62h.1s.66-.64.42-2.58"/><polyline class="cls-4" points="33.65 58.76 36.51 58.44 38.27 60.16 36.65 60.88"/><polyline class="cls-4" points="30.14 66.12 30.77 67.83 33.4 68.62 33.39 67.13"/><polyline class="cls-4" points="39.23 64.36 43.02 63.19 40.88 66.84 40.16 69.86 37.88 67.13"/><path class="cls-4" d="M28.55,60.62a5.55,5.55,0,0,1-2.64,2.53,9,9,0,0,1-2.56-4.9,9.19,9.19,0,0,1,5.63-1A5.4,5.4,0,0,1,28.55,60.62Z"/><circle class="cls-4" cx="27.05" cy="58.98" r="0.61"/><path class="cls-11" d="M83,64.48C76.53,70.78,65,75,51.76,75s-24.5-4.1-31-10.26a.25.25,0,0,1,.19-.44l.38,0c9.61.61,19.82.94,30.39.94s21-.33,30.73-1l.36,0A.13.13,0,0,1,83,64.48Z"/><path class="cls-12" d="M82.49,64.28C74.62,68.94,63.82,71.8,51.9,71.8s-22.67-2.86-30.53-7.5c9.61.61,19.82.94,30.39.94S72.78,64.91,82.49,64.28Z"/><circle class="cls-4" cx="47.01" cy="57.82" r="0.04"/><circle class="cls-4" cx="48.64" cy="57.41" r="0.06"/><circle class="cls-4" cx="44.48" cy="59.6" r="0.05"/><circle class="cls-4" cx="47.05" cy="59.6" r="0.05"/><circle class="cls-4" cx="49.51" cy="58.76" r="0.05"/><path class="cls-4" d="M82.85,64.26a.14.14,0,0,1,.11.23C76.54,70.78,65,75,51.76,75s-24.5-4.1-31-10.28a.25.25,0,0,1,.2-.43c9.73.62,20.06,1,30.77,1S73,64.9,82.85,64.26Z"/><path class="cls-13" d="M22.36,27.63V23.1a3.16,3.16,0,0,0-.9-2.2,3.1,3.1,0,0,0-5.29,2.2v3.4"/><path class="cls-7" d="M35.28,24.46a23.55,23.55,0,0,1-11.91,3.2,23.65,23.65,0,0,1-11.9-3.28"/></g></g></svg>