<?xml version="1.0" encoding="UTF-8" standalone="no"?>
<!DOCTYPE svg PUBLIC "-//W3C//DTD SVG 1.1//EN" "http://www.w3.org/Graphics/SVG/1.1/DTD/svg11.dtd">
<svg width="100%" height="100%" viewBox="0 0 125 71" version="1.1" xmlns="http://www.w3.org/2000/svg" xmlns:xlink="http://www.w3.org/1999/xlink" xml:space="preserve" xmlns:serif="http://www.serif.com/" style="fill-rule:evenodd;clip-rule:evenodd;stroke-linejoin:round;stroke-miterlimit:2;">
    <path id="path291" d="M89.555,0.007C95.469,0.007 101.29,1.488 106.485,4.315L97.462,20.894C95.037,19.574 92.319,18.882 89.558,18.882L89.555,0.007Z" style="fill:rgb(75,210,105);fill-rule:nonzero;"/>
    <path id="path293" d="M106.485,4.315C112.84,7.777 117.983,13.106 121.218,19.58L104.334,28.017C102.823,24.994 100.422,22.506 97.455,20.89L106.485,4.315Z" style="fill:rgb(51,211,255);fill-rule:nonzero;"/>
    <path id="path295" d="M121.199,19.542C126.639,30.396 126.13,43.317 119.853,53.71L103.696,43.952C106.627,39.1 106.864,33.067 104.325,27.999L121.199,19.542Z" style="fill:rgb(255,103,77);fill-rule:nonzero;"/>
    <path id="path297" d="M119.906,53.622C113.515,64.274 101.968,70.812 89.546,70.812C76.935,70.812 65.241,64.074 58.916,53.165L75.245,43.697C78.198,48.791 83.658,51.937 89.546,51.937C95.346,51.937 100.737,48.884 103.721,43.911L119.906,53.622Z" style="fill:rgb(250,185,6);fill-rule:nonzero;"/>
    <path id="path299" d="M58.918,53.168C55.789,47.772 54.14,41.644 54.14,35.406C54.14,15.983 70.123,0 89.546,0C89.581,0 89.616,0 89.65,0L89.595,18.875C89.579,18.875 89.562,18.875 89.546,18.875C80.477,18.875 73.015,26.337 73.015,35.406C73.015,38.318 73.785,41.18 75.246,43.699L58.918,53.168Z" style="fill:rgb(95,122,187);fill-rule:nonzero;"/>
    <g id="text301" transform="matrix(1,0,0,1,19.1408,23.8436)">
        <g transform="matrix(5,0,0,5,0,0)">
            <path d="M0.646,-0L0.532,-0L0.189,-0.519L0.189,-0L0.075,-0L0.075,-0.696L0.189,-0.696L0.532,-0.178L0.532,-0.696L0.646,-0.696L0.646,-0Z" style="fill-rule:nonzero;"/>
        </g>
        <g transform="matrix(5,0,0,5,3.605,0)">
            <path d="M0.188,-0.695L0.188,-0.252C0.188,-0.199 0.202,-0.16 0.23,-0.133C0.257,-0.106 0.296,-0.093 0.345,-0.093C0.395,-0.093 0.434,-0.106 0.462,-0.133C0.489,-0.16 0.503,-0.199 0.503,-0.252L0.503,-0.695L0.617,-0.695L0.617,-0.254C0.617,-0.197 0.605,-0.149 0.58,-0.11C0.555,-0.071 0.522,-0.041 0.481,-0.022C0.44,-0.003 0.394,0.007 0.344,0.007C0.294,0.007 0.249,-0.003 0.207,-0.022C0.167,-0.041 0.134,-0.071 0.11,-0.11C0.086,-0.149 0.074,-0.197 0.074,-0.254L0.074,-0.695L0.188,-0.695Z" style="fill-rule:nonzero;"/>
        </g>
        <g transform="matrix(5,0,0,5,7.055,0)">
            <path d="M0.524,-0.695L0.524,-0.602L0.339,-0.602L0.339,-0L0.225,-0L0.225,-0.602L0.039,-0.602L0.039,-0.695L0.524,-0.695Z" style="fill-rule:nonzero;"/>
        </g>
        <g transform="matrix(5,0,0,5,9.875,0)">
            <path d="M0.436,-0L0.276,-0.278L0.189,-0.278L0.189,-0L0.075,-0L0.075,-0.695L0.315,-0.695C0.368,-0.695 0.413,-0.686 0.451,-0.667C0.488,-0.648 0.515,-0.623 0.534,-0.592C0.552,-0.561 0.561,-0.526 0.561,-0.487C0.561,-0.442 0.548,-0.401 0.522,-0.364C0.495,-0.327 0.455,-0.301 0.4,-0.288L0.572,-0L0.436,-0ZM0.189,-0.369L0.315,-0.369C0.358,-0.369 0.39,-0.38 0.411,-0.401C0.433,-0.422 0.444,-0.451 0.444,-0.487C0.444,-0.523 0.433,-0.551 0.412,-0.572C0.391,-0.592 0.358,-0.602 0.315,-0.602L0.189,-0.602L0.189,-0.369Z" style="fill-rule:nonzero;"/>
        </g>
        <g transform="matrix(5,0,0,5,13.035,0)">
            <rect x="0.075" y="-0.695" width="0.114" height="0.695" style="fill-rule:nonzero;"/>
        </g>
        <g transform="matrix(5,0,0,5,14.355,0)">
            <path d="M0.524,-0.695L0.524,-0.602L0.339,-0.602L0.339,-0L0.225,-0L0.225,-0.602L0.039,-0.602L0.039,-0.695L0.524,-0.695Z" style="fill-rule:nonzero;"/>
        </g>
        <g transform="matrix(5,0,0,5,17.175,0)">
            <rect x="0.075" y="-0.695" width="0.114" height="0.695" style="fill-rule:nonzero;"/>
        </g>
        <g transform="matrix(5,0,0,5,18.495,0)">
            <path d="M0.392,0.007C0.327,0.007 0.268,-0.008 0.214,-0.039C0.159,-0.069 0.116,-0.111 0.085,-0.166C0.053,-0.22 0.037,-0.281 0.037,-0.349C0.037,-0.417 0.053,-0.478 0.085,-0.532C0.116,-0.586 0.159,-0.628 0.214,-0.659C0.268,-0.689 0.327,-0.704 0.392,-0.704C0.457,-0.704 0.517,-0.689 0.572,-0.659C0.626,-0.628 0.669,-0.586 0.7,-0.532C0.731,-0.478 0.747,-0.417 0.747,-0.349C0.747,-0.281 0.731,-0.22 0.7,-0.166C0.669,-0.111 0.626,-0.069 0.572,-0.039C0.517,-0.008 0.457,0.007 0.392,0.007ZM0.392,-0.092C0.438,-0.092 0.479,-0.102 0.515,-0.124C0.551,-0.145 0.579,-0.174 0.6,-0.214C0.62,-0.253 0.63,-0.298 0.63,-0.349C0.63,-0.4 0.62,-0.445 0.6,-0.484C0.579,-0.523 0.551,-0.552 0.515,-0.573C0.479,-0.594 0.438,-0.604 0.392,-0.604C0.346,-0.604 0.305,-0.594 0.269,-0.573C0.233,-0.552 0.205,-0.523 0.185,-0.484C0.164,-0.445 0.154,-0.4 0.154,-0.349C0.154,-0.298 0.164,-0.253 0.185,-0.214C0.205,-0.174 0.233,-0.145 0.269,-0.124C0.305,-0.102 0.346,-0.092 0.392,-0.092Z" style="fill-rule:nonzero;"/>
        </g>
        <g transform="matrix(5,0,0,5,22.415,0)">
            <path d="M0.646,-0L0.532,-0L0.189,-0.519L0.189,-0L0.075,-0L0.075,-0.696L0.189,-0.696L0.532,-0.178L0.532,-0.696L0.646,-0.696L0.646,-0Z" style="fill-rule:nonzero;"/>
        </g>
    </g>
    <g id="text305" transform="matrix(1,0,0,1,16.5308,10.0908)">
        <g transform="matrix(5,0,0,5,0,0)">
            <path d="M0.189,-0.603L0.189,-0.399L0.429,-0.399L0.429,-0.306L0.189,-0.306L0.189,-0.093L0.459,-0.093L0.459,-0L0.075,-0L0.075,-0.696L0.459,-0.696L0.459,-0.603L0.189,-0.603Z" style="fill-rule:nonzero;"/>
        </g>
        <g transform="matrix(5,0,0,5,2.62,0)">
            <path d="M0.302,-0.695C0.376,-0.695 0.441,-0.681 0.497,-0.653C0.552,-0.624 0.595,-0.584 0.625,-0.531C0.656,-0.477 0.671,-0.416 0.671,-0.345C0.671,-0.274 0.656,-0.213 0.625,-0.161C0.595,-0.109 0.552,-0.069 0.497,-0.042C0.441,-0.014 0.376,-0 0.302,-0L0.075,-0L0.075,-0.695L0.302,-0.695ZM0.302,-0.093C0.383,-0.093 0.446,-0.115 0.489,-0.159C0.532,-0.203 0.554,-0.265 0.554,-0.345C0.554,-0.426 0.532,-0.489 0.489,-0.534C0.446,-0.579 0.383,-0.602 0.302,-0.602L0.189,-0.602L0.189,-0.093L0.302,-0.093Z" style="fill-rule:nonzero;"/>
        </g>
        <g transform="matrix(5,0,0,5,6.165,0)">
            <path d="M0.188,-0.695L0.188,-0.252C0.188,-0.199 0.202,-0.16 0.23,-0.133C0.257,-0.106 0.296,-0.093 0.345,-0.093C0.395,-0.093 0.434,-0.106 0.462,-0.133C0.489,-0.16 0.503,-0.199 0.503,-0.252L0.503,-0.695L0.617,-0.695L0.617,-0.254C0.617,-0.197 0.605,-0.149 0.58,-0.11C0.555,-0.071 0.522,-0.041 0.481,-0.022C0.44,-0.003 0.394,0.007 0.344,0.007C0.294,0.007 0.249,-0.003 0.207,-0.022C0.167,-0.041 0.134,-0.071 0.11,-0.11C0.086,-0.149 0.074,-0.197 0.074,-0.254L0.074,-0.695L0.188,-0.695Z" style="fill-rule:nonzero;"/>
        </g>
        <g transform="matrix(5,0,0,5,9.615,0)">
            <path d="M0.037,-0.349C0.037,-0.417 0.053,-0.478 0.085,-0.532C0.116,-0.586 0.159,-0.628 0.214,-0.659C0.268,-0.689 0.327,-0.704 0.392,-0.704C0.466,-0.704 0.532,-0.686 0.59,-0.65C0.647,-0.613 0.689,-0.562 0.715,-0.495L0.578,-0.495C0.56,-0.532 0.535,-0.559 0.503,-0.577C0.471,-0.595 0.434,-0.604 0.392,-0.604C0.346,-0.604 0.305,-0.594 0.269,-0.573C0.233,-0.552 0.205,-0.523 0.185,-0.484C0.164,-0.445 0.154,-0.4 0.154,-0.349C0.154,-0.298 0.164,-0.253 0.185,-0.214C0.205,-0.175 0.233,-0.146 0.269,-0.125C0.305,-0.103 0.346,-0.093 0.392,-0.093C0.434,-0.093 0.471,-0.102 0.503,-0.12C0.535,-0.138 0.56,-0.165 0.578,-0.202L0.715,-0.202C0.689,-0.135 0.647,-0.084 0.59,-0.048C0.532,-0.012 0.466,0.006 0.392,0.006C0.327,0.006 0.267,-0.009 0.213,-0.04C0.159,-0.07 0.116,-0.112 0.085,-0.166C0.053,-0.22 0.037,-0.281 0.037,-0.349Z" style="fill-rule:nonzero;"/>
        </g>
        <g transform="matrix(5,0,0,5,13.48,0)">
            <path d="M0.494,-0.142L0.203,-0.142L0.153,-0L0.034,-0L0.283,-0.696L0.415,-0.696L0.664,-0L0.544,-0L0.494,-0.142ZM0.462,-0.235L0.349,-0.558L0.235,-0.235L0.462,-0.235Z" style="fill-rule:nonzero;"/>
        </g>
        <g transform="matrix(5,0,0,5,16.965,0)">
            <path d="M0.524,-0.695L0.524,-0.602L0.339,-0.602L0.339,-0L0.225,-0L0.225,-0.602L0.039,-0.602L0.039,-0.695L0.524,-0.695Z" style="fill-rule:nonzero;"/>
        </g>
        <g transform="matrix(5,0,0,5,19.785,0)">
            <rect x="0.075" y="-0.695" width="0.114" height="0.695" style="fill-rule:nonzero;"/>
        </g>
        <g transform="matrix(5,0,0,5,21.105,0)">
            <path d="M0.392,0.007C0.327,0.007 0.268,-0.008 0.214,-0.039C0.159,-0.069 0.116,-0.111 0.085,-0.166C0.053,-0.22 0.037,-0.281 0.037,-0.349C0.037,-0.417 0.053,-0.478 0.085,-0.532C0.116,-0.586 0.159,-0.628 0.214,-0.659C0.268,-0.689 0.327,-0.704 0.392,-0.704C0.457,-0.704 0.517,-0.689 0.572,-0.659C0.626,-0.628 0.669,-0.586 0.7,-0.532C0.731,-0.478 0.747,-0.417 0.747,-0.349C0.747,-0.281 0.731,-0.22 0.7,-0.166C0.669,-0.111 0.626,-0.069 0.572,-0.039C0.517,-0.008 0.457,0.007 0.392,0.007ZM0.392,-0.092C0.438,-0.092 0.479,-0.102 0.515,-0.124C0.551,-0.145 0.579,-0.174 0.6,-0.214C0.62,-0.253 0.63,-0.298 0.63,-0.349C0.63,-0.4 0.62,-0.445 0.6,-0.484C0.579,-0.523 0.551,-0.552 0.515,-0.573C0.479,-0.594 0.438,-0.604 0.392,-0.604C0.346,-0.604 0.305,-0.594 0.269,-0.573C0.233,-0.552 0.205,-0.523 0.185,-0.484C0.164,-0.445 0.154,-0.4 0.154,-0.349C0.154,-0.298 0.164,-0.253 0.185,-0.214C0.205,-0.174 0.233,-0.145 0.269,-0.124C0.305,-0.102 0.346,-0.092 0.392,-0.092Z" style="fill-rule:nonzero;"/>
        </g>
        <g transform="matrix(5,0,0,5,25.025,0)">
            <path d="M0.646,-0L0.532,-0L0.189,-0.519L0.189,-0L0.075,-0L0.075,-0.696L0.189,-0.696L0.532,-0.178L0.532,-0.696L0.646,-0.696L0.646,-0Z" style="fill-rule:nonzero;"/>
        </g>
    </g>
    <g transform="matrix(1,0,0,1,45.2788,62.4973)">
        <g id="text325">
            <g>
                <g transform="matrix(5,0,0,5,-24.36,0)">
                    <path d="M0.524,-0.695L0.524,-0.602L0.339,-0.602L0.339,-0L0.225,-0L0.225,-0.602L0.039,-0.602L0.039,-0.695L0.524,-0.695Z" style="fill-rule:nonzero;"/>
                </g>
                <g transform="matrix(5,0,0,5,-21.54,0)">
                    <path d="M0.188,-0.695L0.188,-0.252C0.188,-0.199 0.202,-0.16 0.23,-0.133C0.257,-0.106 0.296,-0.093 0.345,-0.093C0.395,-0.093 0.434,-0.106 0.462,-0.133C0.489,-0.16 0.503,-0.199 0.503,-0.252L0.503,-0.695L0.617,-0.695L0.617,-0.254C0.617,-0.197 0.605,-0.149 0.58,-0.11C0.555,-0.071 0.522,-0.041 0.481,-0.022C0.44,-0.003 0.394,0.007 0.344,0.007C0.294,0.007 0.249,-0.003 0.207,-0.022C0.167,-0.041 0.134,-0.071 0.11,-0.11C0.086,-0.149 0.074,-0.197 0.074,-0.254L0.074,-0.695L0.188,-0.695Z" style="fill-rule:nonzero;"/>
                </g>
                <g transform="matrix(5,0,0,5,-18.09,0)">
                    <rect x="0.075" y="-0.695" width="0.114" height="0.695" style="fill-rule:nonzero;"/>
                </g>
                <g transform="matrix(5,0,0,5,-16.77,0)">
                    <path d="M0.524,-0.695L0.524,-0.602L0.339,-0.602L0.339,-0L0.225,-0L0.225,-0.602L0.039,-0.602L0.039,-0.695L0.524,-0.695Z" style="fill-rule:nonzero;"/>
                </g>
                <g transform="matrix(5,0,0,5,-13.95,0)">
                    <rect x="0.075" y="-0.695" width="0.114" height="0.695" style="fill-rule:nonzero;"/>
                </g>
                <g transform="matrix(5,0,0,5,-12.63,0)">
                    <path d="M0.392,0.007C0.327,0.007 0.268,-0.008 0.214,-0.039C0.159,-0.069 0.116,-0.111 0.085,-0.166C0.053,-0.22 0.037,-0.281 0.037,-0.349C0.037,-0.417 0.053,-0.478 0.085,-0.532C0.116,-0.586 0.159,-0.628 0.214,-0.659C0.268,-0.689 0.327,-0.704 0.392,-0.704C0.457,-0.704 0.517,-0.689 0.572,-0.659C0.626,-0.628 0.669,-0.586 0.7,-0.532C0.731,-0.478 0.747,-0.417 0.747,-0.349C0.747,-0.281 0.731,-0.22 0.7,-0.166C0.669,-0.111 0.626,-0.069 0.572,-0.039C0.517,-0.008 0.457,0.007 0.392,0.007ZM0.392,-0.092C0.438,-0.092 0.479,-0.102 0.515,-0.124C0.551,-0.145 0.579,-0.174 0.6,-0.214C0.62,-0.253 0.63,-0.298 0.63,-0.349C0.63,-0.4 0.62,-0.445 0.6,-0.484C0.579,-0.523 0.551,-0.552 0.515,-0.573C0.479,-0.594 0.438,-0.604 0.392,-0.604C0.346,-0.604 0.305,-0.594 0.269,-0.573C0.233,-0.552 0.205,-0.523 0.185,-0.484C0.164,-0.445 0.154,-0.4 0.154,-0.349C0.154,-0.298 0.164,-0.253 0.185,-0.214C0.205,-0.174 0.233,-0.145 0.269,-0.124C0.305,-0.102 0.346,-0.092 0.392,-0.092Z" style="fill-rule:nonzero;"/>
                </g>
                <g transform="matrix(5,0,0,5,-8.71,0)">
                    <path d="M0.646,-0L0.532,-0L0.189,-0.519L0.189,-0L0.075,-0L0.075,-0.696L0.189,-0.696L0.532,-0.178L0.532,-0.696L0.646,-0.696L0.646,-0Z" style="fill-rule:nonzero;"/>
                </g>
                <g transform="matrix(5,0,0,5,-3.805,0)">
                    <path d="M0.612,-0L0.526,-0.086C0.493,-0.053 0.456,-0.028 0.417,-0.012C0.378,0.005 0.334,0.013 0.285,0.013C0.236,0.013 0.192,0.004 0.154,-0.013C0.116,-0.03 0.087,-0.055 0.066,-0.087C0.045,-0.12 0.035,-0.157 0.035,-0.2C0.035,-0.248 0.049,-0.291 0.076,-0.329C0.103,-0.366 0.144,-0.396 0.198,-0.418C0.179,-0.441 0.165,-0.463 0.157,-0.484C0.149,-0.504 0.145,-0.526 0.145,-0.551C0.145,-0.582 0.153,-0.609 0.169,-0.633C0.184,-0.657 0.207,-0.676 0.236,-0.69C0.265,-0.704 0.299,-0.711 0.338,-0.711C0.377,-0.711 0.411,-0.704 0.439,-0.689C0.466,-0.674 0.487,-0.653 0.5,-0.627C0.514,-0.601 0.52,-0.572 0.517,-0.54L0.403,-0.54C0.404,-0.565 0.398,-0.584 0.385,-0.598C0.372,-0.611 0.355,-0.618 0.333,-0.618C0.311,-0.618 0.293,-0.612 0.28,-0.599C0.266,-0.586 0.259,-0.57 0.259,-0.551C0.259,-0.533 0.264,-0.515 0.275,-0.498C0.285,-0.48 0.303,-0.457 0.329,-0.429L0.513,-0.246L0.584,-0.363L0.707,-0.363L0.617,-0.209L0.592,-0.168L0.761,-0L0.612,-0ZM0.285,-0.084C0.348,-0.084 0.403,-0.11 0.451,-0.161L0.267,-0.346C0.188,-0.315 0.149,-0.267 0.149,-0.204C0.149,-0.17 0.162,-0.141 0.187,-0.118C0.212,-0.096 0.245,-0.084 0.285,-0.084Z" style="fill-rule:nonzero;"/>
                </g>
                <g transform="matrix(5,0,0,5,-43.37,5)">
                    <path d="M0.304,0.007C0.257,0.007 0.215,-0.001 0.178,-0.018C0.141,-0.034 0.111,-0.057 0.09,-0.087C0.069,-0.117 0.058,-0.152 0.058,-0.192L0.18,-0.192C0.183,-0.162 0.195,-0.137 0.216,-0.118C0.236,-0.099 0.266,-0.089 0.304,-0.089C0.343,-0.089 0.374,-0.099 0.396,-0.117C0.418,-0.137 0.429,-0.161 0.429,-0.191C0.429,-0.214 0.422,-0.233 0.408,-0.248C0.395,-0.263 0.378,-0.274 0.358,-0.282C0.337,-0.29 0.309,-0.299 0.273,-0.308C0.228,-0.32 0.191,-0.332 0.163,-0.344C0.134,-0.357 0.11,-0.376 0.09,-0.402C0.07,-0.428 0.06,-0.463 0.06,-0.506C0.06,-0.546 0.07,-0.581 0.09,-0.611C0.11,-0.641 0.138,-0.664 0.174,-0.68C0.21,-0.696 0.252,-0.704 0.299,-0.704C0.366,-0.704 0.422,-0.687 0.465,-0.654C0.507,-0.62 0.531,-0.574 0.536,-0.515L0.41,-0.515C0.408,-0.54 0.396,-0.562 0.374,-0.58C0.352,-0.598 0.323,-0.607 0.287,-0.607C0.254,-0.607 0.228,-0.599 0.207,-0.582C0.186,-0.565 0.176,-0.541 0.176,-0.51C0.176,-0.489 0.183,-0.471 0.196,-0.458C0.209,-0.444 0.225,-0.433 0.245,-0.425C0.265,-0.417 0.292,-0.408 0.327,-0.399C0.373,-0.386 0.41,-0.374 0.44,-0.361C0.469,-0.348 0.493,-0.329 0.514,-0.303C0.534,-0.276 0.544,-0.241 0.544,-0.197C0.544,-0.162 0.535,-0.128 0.516,-0.097C0.497,-0.066 0.469,-0.041 0.433,-0.021C0.396,-0.003 0.353,0.007 0.304,0.007Z" style="fill-rule:nonzero;"/>
                </g>
                <g transform="matrix(5,0,0,5,-40.35,5)">
                    <path d="M0.037,-0.349C0.037,-0.417 0.053,-0.478 0.085,-0.532C0.116,-0.586 0.159,-0.628 0.214,-0.659C0.268,-0.689 0.327,-0.704 0.392,-0.704C0.466,-0.704 0.532,-0.686 0.59,-0.65C0.647,-0.613 0.689,-0.562 0.715,-0.495L0.578,-0.495C0.56,-0.532 0.535,-0.559 0.503,-0.577C0.471,-0.595 0.434,-0.604 0.392,-0.604C0.346,-0.604 0.305,-0.594 0.269,-0.573C0.233,-0.552 0.205,-0.523 0.185,-0.484C0.164,-0.445 0.154,-0.4 0.154,-0.349C0.154,-0.298 0.164,-0.253 0.185,-0.214C0.205,-0.175 0.233,-0.146 0.269,-0.125C0.305,-0.103 0.346,-0.093 0.392,-0.093C0.434,-0.093 0.471,-0.102 0.503,-0.12C0.535,-0.138 0.56,-0.165 0.578,-0.202L0.715,-0.202C0.689,-0.135 0.647,-0.084 0.59,-0.048C0.532,-0.012 0.466,0.006 0.392,0.006C0.327,0.006 0.267,-0.009 0.213,-0.04C0.159,-0.07 0.116,-0.112 0.085,-0.166C0.053,-0.22 0.037,-0.281 0.037,-0.349Z" style="fill-rule:nonzero;"/>
                </g>
                <g transform="matrix(5,0,0,5,-36.485,5)">
                    <path d="M0.63,-0.695L0.63,-0L0.516,-0L0.516,-0.304L0.189,-0.304L0.189,-0L0.075,-0L0.075,-0.695L0.189,-0.695L0.189,-0.397L0.516,-0.397L0.516,-0.695L0.63,-0.695Z" style="fill-rule:nonzero;"/>
                </g>
                <g transform="matrix(5,0,0,5,-32.96,5)">
                    <path d="M0.392,0.007C0.327,0.007 0.268,-0.008 0.214,-0.039C0.159,-0.069 0.116,-0.111 0.085,-0.166C0.053,-0.22 0.037,-0.281 0.037,-0.349C0.037,-0.417 0.053,-0.478 0.085,-0.532C0.116,-0.586 0.159,-0.628 0.214,-0.659C0.268,-0.689 0.327,-0.704 0.392,-0.704C0.457,-0.704 0.517,-0.689 0.572,-0.659C0.626,-0.628 0.669,-0.586 0.7,-0.532C0.731,-0.478 0.747,-0.417 0.747,-0.349C0.747,-0.281 0.731,-0.22 0.7,-0.166C0.669,-0.111 0.626,-0.069 0.572,-0.039C0.517,-0.008 0.457,0.007 0.392,0.007ZM0.392,-0.092C0.438,-0.092 0.479,-0.102 0.515,-0.124C0.551,-0.145 0.579,-0.174 0.6,-0.214C0.62,-0.253 0.63,-0.298 0.63,-0.349C0.63,-0.4 0.62,-0.445 0.6,-0.484C0.579,-0.523 0.551,-0.552 0.515,-0.573C0.479,-0.594 0.438,-0.604 0.392,-0.604C0.346,-0.604 0.305,-0.594 0.269,-0.573C0.233,-0.552 0.205,-0.523 0.185,-0.484C0.164,-0.445 0.154,-0.4 0.154,-0.349C0.154,-0.298 0.164,-0.253 0.185,-0.214C0.205,-0.174 0.233,-0.145 0.269,-0.124C0.305,-0.102 0.346,-0.092 0.392,-0.092Z" style="fill-rule:nonzero;"/>
                </g>
                <g transform="matrix(5,0,0,5,-29.04,5)">
                    <path d="M0.392,0.007C0.327,0.007 0.268,-0.008 0.214,-0.039C0.159,-0.069 0.116,-0.111 0.085,-0.166C0.053,-0.22 0.037,-0.281 0.037,-0.349C0.037,-0.417 0.053,-0.478 0.085,-0.532C0.116,-0.586 0.159,-0.628 0.214,-0.659C0.268,-0.689 0.327,-0.704 0.392,-0.704C0.457,-0.704 0.517,-0.689 0.572,-0.659C0.626,-0.628 0.669,-0.586 0.7,-0.532C0.731,-0.478 0.747,-0.417 0.747,-0.349C0.747,-0.281 0.731,-0.22 0.7,-0.166C0.669,-0.111 0.626,-0.069 0.572,-0.039C0.517,-0.008 0.457,0.007 0.392,0.007ZM0.392,-0.092C0.438,-0.092 0.479,-0.102 0.515,-0.124C0.551,-0.145 0.579,-0.174 0.6,-0.214C0.62,-0.253 0.63,-0.298 0.63,-0.349C0.63,-0.4 0.62,-0.445 0.6,-0.484C0.579,-0.523 0.551,-0.552 0.515,-0.573C0.479,-0.594 0.438,-0.604 0.392,-0.604C0.346,-0.604 0.305,-0.594 0.269,-0.573C0.233,-0.552 0.205,-0.523 0.185,-0.484C0.164,-0.445 0.154,-0.4 0.154,-0.349C0.154,-0.298 0.164,-0.253 0.185,-0.214C0.205,-0.174 0.233,-0.145 0.269,-0.124C0.305,-0.102 0.346,-0.092 0.392,-0.092Z" style="fill-rule:nonzero;"/>
                </g>
                <g transform="matrix(5,0,0,5,-25.12,5)">
                    <path d="M0.189,-0.092L0.424,-0.092L0.424,-0L0.075,-0L0.075,-0.695L0.189,-0.695L0.189,-0.092Z" style="fill-rule:nonzero;"/>
                </g>
                <g transform="matrix(5,0,0,5,-21.6,5)">
                    <path d="M0.304,0.007C0.257,0.007 0.215,-0.001 0.178,-0.018C0.141,-0.034 0.111,-0.057 0.09,-0.087C0.069,-0.117 0.058,-0.152 0.058,-0.192L0.18,-0.192C0.183,-0.162 0.195,-0.137 0.216,-0.118C0.236,-0.099 0.266,-0.089 0.304,-0.089C0.343,-0.089 0.374,-0.099 0.396,-0.117C0.418,-0.137 0.429,-0.161 0.429,-0.191C0.429,-0.214 0.422,-0.233 0.408,-0.248C0.395,-0.263 0.378,-0.274 0.358,-0.282C0.337,-0.29 0.309,-0.299 0.273,-0.308C0.228,-0.32 0.191,-0.332 0.163,-0.344C0.134,-0.357 0.11,-0.376 0.09,-0.402C0.07,-0.428 0.06,-0.463 0.06,-0.506C0.06,-0.546 0.07,-0.581 0.09,-0.611C0.11,-0.641 0.138,-0.664 0.174,-0.68C0.21,-0.696 0.252,-0.704 0.299,-0.704C0.366,-0.704 0.422,-0.687 0.465,-0.654C0.507,-0.62 0.531,-0.574 0.536,-0.515L0.41,-0.515C0.408,-0.54 0.396,-0.562 0.374,-0.58C0.352,-0.598 0.323,-0.607 0.287,-0.607C0.254,-0.607 0.228,-0.599 0.207,-0.582C0.186,-0.565 0.176,-0.541 0.176,-0.51C0.176,-0.489 0.183,-0.471 0.196,-0.458C0.209,-0.444 0.225,-0.433 0.245,-0.425C0.265,-0.417 0.292,-0.408 0.327,-0.399C0.373,-0.386 0.41,-0.374 0.44,-0.361C0.469,-0.348 0.493,-0.329 0.514,-0.303C0.534,-0.276 0.544,-0.241 0.544,-0.197C0.544,-0.162 0.535,-0.128 0.516,-0.097C0.497,-0.066 0.469,-0.041 0.433,-0.021C0.396,-0.003 0.353,0.007 0.304,0.007Z" style="fill-rule:nonzero;"/>
                </g>
                <g transform="matrix(5,0,0,5,-18.58,5)">
                    <path d="M0.188,-0.695L0.188,-0.252C0.188,-0.199 0.202,-0.16 0.23,-0.133C0.257,-0.106 0.296,-0.093 0.345,-0.093C0.395,-0.093 0.434,-0.106 0.462,-0.133C0.489,-0.16 0.503,-0.199 0.503,-0.252L0.503,-0.695L0.617,-0.695L0.617,-0.254C0.617,-0.197 0.605,-0.149 0.58,-0.11C0.555,-0.071 0.522,-0.041 0.481,-0.022C0.44,-0.003 0.394,0.007 0.344,0.007C0.294,0.007 0.249,-0.003 0.207,-0.022C0.167,-0.041 0.134,-0.071 0.11,-0.11C0.086,-0.149 0.074,-0.197 0.074,-0.254L0.074,-0.695L0.188,-0.695Z" style="fill-rule:nonzero;"/>
                </g>
                <g transform="matrix(5,0,0,5,-15.13,5)">
                    <path d="M0.561,-0.488C0.561,-0.453 0.553,-0.419 0.536,-0.388C0.519,-0.357 0.493,-0.331 0.456,-0.312C0.419,-0.292 0.372,-0.282 0.315,-0.282L0.189,-0.282L0.189,-0L0.075,-0L0.075,-0.695L0.315,-0.695C0.368,-0.695 0.413,-0.686 0.451,-0.668C0.488,-0.649 0.515,-0.624 0.534,-0.593C0.552,-0.562 0.561,-0.527 0.561,-0.488ZM0.315,-0.375C0.358,-0.375 0.391,-0.385 0.412,-0.405C0.433,-0.424 0.444,-0.452 0.444,-0.488C0.444,-0.564 0.401,-0.602 0.315,-0.602L0.189,-0.602L0.189,-0.375L0.315,-0.375Z" style="fill-rule:nonzero;"/>
                </g>
                <g transform="matrix(5,0,0,5,-12.155,5)">
                    <path d="M0.561,-0.488C0.561,-0.453 0.553,-0.419 0.536,-0.388C0.519,-0.357 0.493,-0.331 0.456,-0.312C0.419,-0.292 0.372,-0.282 0.315,-0.282L0.189,-0.282L0.189,-0L0.075,-0L0.075,-0.695L0.315,-0.695C0.368,-0.695 0.413,-0.686 0.451,-0.668C0.488,-0.649 0.515,-0.624 0.534,-0.593C0.552,-0.562 0.561,-0.527 0.561,-0.488ZM0.315,-0.375C0.358,-0.375 0.391,-0.385 0.412,-0.405C0.433,-0.424 0.444,-0.452 0.444,-0.488C0.444,-0.564 0.401,-0.602 0.315,-0.602L0.189,-0.602L0.189,-0.375L0.315,-0.375Z" style="fill-rule:nonzero;"/>
                </g>
                <g transform="matrix(5,0,0,5,-9.18,5)">
                    <path d="M0.189,-0.092L0.424,-0.092L0.424,-0L0.075,-0L0.075,-0.695L0.189,-0.695L0.189,-0.092Z" style="fill-rule:nonzero;"/>
                </g>
                <g transform="matrix(5,0,0,5,-6.96,5)">
                    <rect x="0.075" y="-0.695" width="0.114" height="0.695" style="fill-rule:nonzero;"/>
                </g>
                <g transform="matrix(5,0,0,5,-5.64,5)">
                    <path d="M0.189,-0.603L0.189,-0.399L0.429,-0.399L0.429,-0.306L0.189,-0.306L0.189,-0.093L0.459,-0.093L0.459,-0L0.075,-0L0.075,-0.696L0.459,-0.696L0.459,-0.603L0.189,-0.603Z" style="fill-rule:nonzero;"/>
                </g>
                <g transform="matrix(5,0,0,5,-3.02,5)">
                    <path d="M0.304,0.007C0.257,0.007 0.215,-0.001 0.178,-0.018C0.141,-0.034 0.111,-0.057 0.09,-0.087C0.069,-0.117 0.058,-0.152 0.058,-0.192L0.18,-0.192C0.183,-0.162 0.195,-0.137 0.216,-0.118C0.236,-0.099 0.266,-0.089 0.304,-0.089C0.343,-0.089 0.374,-0.099 0.396,-0.117C0.418,-0.137 0.429,-0.161 0.429,-0.191C0.429,-0.214 0.422,-0.233 0.408,-0.248C0.395,-0.263 0.378,-0.274 0.358,-0.282C0.337,-0.29 0.309,-0.299 0.273,-0.308C0.228,-0.32 0.191,-0.332 0.163,-0.344C0.134,-0.357 0.11,-0.376 0.09,-0.402C0.07,-0.428 0.06,-0.463 0.06,-0.506C0.06,-0.546 0.07,-0.581 0.09,-0.611C0.11,-0.641 0.138,-0.664 0.174,-0.68C0.21,-0.696 0.252,-0.704 0.299,-0.704C0.366,-0.704 0.422,-0.687 0.465,-0.654C0.507,-0.62 0.531,-0.574 0.536,-0.515L0.41,-0.515C0.408,-0.54 0.396,-0.562 0.374,-0.58C0.352,-0.598 0.323,-0.607 0.287,-0.607C0.254,-0.607 0.228,-0.599 0.207,-0.582C0.186,-0.565 0.176,-0.541 0.176,-0.51C0.176,-0.489 0.183,-0.471 0.196,-0.458C0.209,-0.444 0.225,-0.433 0.245,-0.425C0.265,-0.417 0.292,-0.408 0.327,-0.399C0.373,-0.386 0.41,-0.374 0.44,-0.361C0.469,-0.348 0.493,-0.329 0.514,-0.303C0.534,-0.276 0.544,-0.241 0.544,-0.197C0.544,-0.162 0.535,-0.128 0.516,-0.097C0.497,-0.066 0.469,-0.041 0.433,-0.021C0.396,-0.003 0.353,0.007 0.304,0.007Z" style="fill-rule:nonzero;"/>
                </g>
            </g>
        </g>
    </g>
    <g id="text329" transform="matrix(1,0,0,1,15.4685,34.5978)">
        <g transform="matrix(5,0,0,5,0,0)">
            <path d="M0.392,0.007C0.327,0.007 0.268,-0.008 0.214,-0.039C0.159,-0.069 0.116,-0.111 0.085,-0.166C0.053,-0.22 0.037,-0.281 0.037,-0.349C0.037,-0.417 0.053,-0.478 0.085,-0.532C0.116,-0.586 0.159,-0.628 0.214,-0.659C0.268,-0.689 0.327,-0.704 0.392,-0.704C0.457,-0.704 0.517,-0.689 0.572,-0.659C0.626,-0.628 0.669,-0.586 0.7,-0.532C0.731,-0.478 0.747,-0.417 0.747,-0.349C0.747,-0.281 0.731,-0.22 0.7,-0.166C0.669,-0.111 0.626,-0.069 0.572,-0.039C0.517,-0.008 0.457,0.007 0.392,0.007ZM0.392,-0.092C0.438,-0.092 0.479,-0.102 0.515,-0.124C0.551,-0.145 0.579,-0.174 0.6,-0.214C0.62,-0.253 0.63,-0.298 0.63,-0.349C0.63,-0.4 0.62,-0.445 0.6,-0.484C0.579,-0.523 0.551,-0.552 0.515,-0.573C0.479,-0.594 0.438,-0.604 0.392,-0.604C0.346,-0.604 0.305,-0.594 0.269,-0.573C0.233,-0.552 0.205,-0.523 0.185,-0.484C0.164,-0.445 0.154,-0.4 0.154,-0.349C0.154,-0.298 0.164,-0.253 0.185,-0.214C0.205,-0.174 0.233,-0.145 0.269,-0.124C0.305,-0.102 0.346,-0.092 0.392,-0.092Z" style="fill-rule:nonzero;"/>
        </g>
        <g transform="matrix(5,0,0,5,3.9075,0)">
            <path d="M0.561,-0.488C0.561,-0.453 0.553,-0.419 0.536,-0.388C0.519,-0.357 0.493,-0.331 0.456,-0.312C0.419,-0.292 0.372,-0.282 0.315,-0.282L0.189,-0.282L0.189,-0L0.075,-0L0.075,-0.695L0.315,-0.695C0.368,-0.695 0.413,-0.686 0.451,-0.668C0.488,-0.649 0.515,-0.624 0.534,-0.593C0.552,-0.562 0.561,-0.527 0.561,-0.488ZM0.315,-0.375C0.358,-0.375 0.391,-0.385 0.412,-0.405C0.433,-0.424 0.444,-0.452 0.444,-0.488C0.444,-0.564 0.401,-0.602 0.315,-0.602L0.189,-0.602L0.189,-0.375L0.315,-0.375Z" style="fill-rule:nonzero;"/>
        </g>
        <g transform="matrix(5,0,0,5,6.87,0)">
            <path d="M0.189,-0.603L0.189,-0.399L0.429,-0.399L0.429,-0.306L0.189,-0.306L0.189,-0.093L0.459,-0.093L0.459,-0L0.075,-0L0.075,-0.696L0.459,-0.696L0.459,-0.603L0.189,-0.603Z" style="fill-rule:nonzero;"/>
        </g>
        <g transform="matrix(5,0,0,5,9.4775,0)">
            <path d="M0.436,-0L0.276,-0.278L0.189,-0.278L0.189,-0L0.075,-0L0.075,-0.695L0.315,-0.695C0.368,-0.695 0.413,-0.686 0.451,-0.667C0.488,-0.648 0.515,-0.623 0.534,-0.592C0.552,-0.561 0.561,-0.526 0.561,-0.487C0.561,-0.442 0.548,-0.401 0.522,-0.364C0.495,-0.327 0.455,-0.301 0.4,-0.288L0.572,-0L0.436,-0ZM0.189,-0.369L0.315,-0.369C0.358,-0.369 0.39,-0.38 0.411,-0.401C0.433,-0.422 0.444,-0.451 0.444,-0.487C0.444,-0.523 0.433,-0.551 0.412,-0.572C0.391,-0.592 0.358,-0.602 0.315,-0.602L0.189,-0.602L0.189,-0.369Z" style="fill-rule:nonzero;"/>
        </g>
        <g transform="matrix(5,0,0,5,12.625,0)">
            <path d="M0.494,-0.142L0.203,-0.142L0.153,-0L0.034,-0L0.283,-0.696L0.415,-0.696L0.664,-0L0.544,-0L0.494,-0.142ZM0.462,-0.235L0.349,-0.558L0.235,-0.235L0.462,-0.235Z" style="fill-rule:nonzero;"/>
        </g>
        <g transform="matrix(5,0,0,5,16.0975,0)">
            <path d="M0.524,-0.695L0.524,-0.602L0.339,-0.602L0.339,-0L0.225,-0L0.225,-0.602L0.039,-0.602L0.039,-0.695L0.524,-0.695Z" style="fill-rule:nonzero;"/>
        </g>
        <g transform="matrix(5,0,0,5,18.905,0)">
            <rect x="0.075" y="-0.695" width="0.114" height="0.695" style="fill-rule:nonzero;"/>
        </g>
        <g transform="matrix(5,0,0,5,20.2125,0)">
            <path d="M0.646,-0L0.532,-0L0.189,-0.519L0.189,-0L0.075,-0L0.075,-0.696L0.189,-0.696L0.532,-0.178L0.532,-0.696L0.646,-0.696L0.646,-0Z" style="fill-rule:nonzero;"/>
        </g>
        <g transform="matrix(5,0,0,5,23.805,0)">
            <path d="M0.578,-0.495C0.56,-0.53 0.535,-0.556 0.503,-0.574C0.471,-0.591 0.434,-0.6 0.392,-0.6C0.346,-0.6 0.305,-0.59 0.269,-0.569C0.233,-0.548 0.205,-0.519 0.185,-0.481C0.164,-0.443 0.154,-0.399 0.154,-0.349C0.154,-0.299 0.164,-0.255 0.185,-0.217C0.205,-0.178 0.233,-0.149 0.269,-0.128C0.305,-0.107 0.346,-0.097 0.392,-0.097C0.454,-0.097 0.504,-0.114 0.543,-0.149C0.582,-0.184 0.605,-0.231 0.614,-0.29L0.353,-0.29L0.353,-0.381L0.736,-0.381L0.736,-0.292C0.729,-0.238 0.71,-0.188 0.679,-0.143C0.648,-0.098 0.607,-0.062 0.558,-0.035C0.508,-0.008 0.453,0.006 0.392,0.006C0.327,0.006 0.267,-0.009 0.213,-0.04C0.159,-0.07 0.116,-0.112 0.085,-0.166C0.053,-0.22 0.037,-0.281 0.037,-0.349C0.037,-0.417 0.053,-0.478 0.085,-0.532C0.116,-0.586 0.159,-0.628 0.214,-0.659C0.268,-0.689 0.327,-0.704 0.392,-0.704C0.466,-0.704 0.532,-0.686 0.59,-0.65C0.647,-0.613 0.689,-0.562 0.715,-0.495L0.578,-0.495Z" style="fill-rule:nonzero;"/>
        </g>
        <g transform="matrix(5,0,0,5,11.0625,5)">
            <path d="M0.037,-0.349C0.037,-0.417 0.053,-0.478 0.085,-0.532C0.116,-0.586 0.159,-0.628 0.214,-0.659C0.268,-0.689 0.327,-0.704 0.392,-0.704C0.466,-0.704 0.532,-0.686 0.59,-0.65C0.647,-0.613 0.689,-0.562 0.715,-0.495L0.578,-0.495C0.56,-0.532 0.535,-0.559 0.503,-0.577C0.471,-0.595 0.434,-0.604 0.392,-0.604C0.346,-0.604 0.305,-0.594 0.269,-0.573C0.233,-0.552 0.205,-0.523 0.185,-0.484C0.164,-0.445 0.154,-0.4 0.154,-0.349C0.154,-0.298 0.164,-0.253 0.185,-0.214C0.205,-0.175 0.233,-0.146 0.269,-0.125C0.305,-0.103 0.346,-0.093 0.392,-0.093C0.434,-0.093 0.471,-0.102 0.503,-0.12C0.535,-0.138 0.56,-0.165 0.578,-0.202L0.715,-0.202C0.689,-0.135 0.647,-0.084 0.59,-0.048C0.532,-0.012 0.466,0.006 0.392,0.006C0.327,0.006 0.267,-0.009 0.213,-0.04C0.159,-0.07 0.116,-0.112 0.085,-0.166C0.053,-0.22 0.037,-0.281 0.037,-0.349Z" style="fill-rule:nonzero;"/>
        </g>
        <g transform="matrix(5,0,0,5,14.915,5)">
            <path d="M0.392,0.007C0.327,0.007 0.268,-0.008 0.214,-0.039C0.159,-0.069 0.116,-0.111 0.085,-0.166C0.053,-0.22 0.037,-0.281 0.037,-0.349C0.037,-0.417 0.053,-0.478 0.085,-0.532C0.116,-0.586 0.159,-0.628 0.214,-0.659C0.268,-0.689 0.327,-0.704 0.392,-0.704C0.457,-0.704 0.517,-0.689 0.572,-0.659C0.626,-0.628 0.669,-0.586 0.7,-0.532C0.731,-0.478 0.747,-0.417 0.747,-0.349C0.747,-0.281 0.731,-0.22 0.7,-0.166C0.669,-0.111 0.626,-0.069 0.572,-0.039C0.517,-0.008 0.457,0.007 0.392,0.007ZM0.392,-0.092C0.438,-0.092 0.479,-0.102 0.515,-0.124C0.551,-0.145 0.579,-0.174 0.6,-0.214C0.62,-0.253 0.63,-0.298 0.63,-0.349C0.63,-0.4 0.62,-0.445 0.6,-0.484C0.579,-0.523 0.551,-0.552 0.515,-0.573C0.479,-0.594 0.438,-0.604 0.392,-0.604C0.346,-0.604 0.305,-0.594 0.269,-0.573C0.233,-0.552 0.205,-0.523 0.185,-0.484C0.164,-0.445 0.154,-0.4 0.154,-0.349C0.154,-0.298 0.164,-0.253 0.185,-0.214C0.205,-0.174 0.233,-0.145 0.269,-0.124C0.305,-0.102 0.346,-0.092 0.392,-0.092Z" style="fill-rule:nonzero;"/>
        </g>
        <g transform="matrix(5,0,0,5,18.8225,5)">
            <path d="M0.304,0.007C0.257,0.007 0.215,-0.001 0.178,-0.018C0.141,-0.034 0.111,-0.057 0.09,-0.087C0.069,-0.117 0.058,-0.152 0.058,-0.192L0.18,-0.192C0.183,-0.162 0.195,-0.137 0.216,-0.118C0.236,-0.099 0.266,-0.089 0.304,-0.089C0.343,-0.089 0.374,-0.099 0.396,-0.117C0.418,-0.137 0.429,-0.161 0.429,-0.191C0.429,-0.214 0.422,-0.233 0.408,-0.248C0.395,-0.263 0.378,-0.274 0.358,-0.282C0.337,-0.29 0.309,-0.299 0.273,-0.308C0.228,-0.32 0.191,-0.332 0.163,-0.344C0.134,-0.357 0.11,-0.376 0.09,-0.402C0.07,-0.428 0.06,-0.463 0.06,-0.506C0.06,-0.546 0.07,-0.581 0.09,-0.611C0.11,-0.641 0.138,-0.664 0.174,-0.68C0.21,-0.696 0.252,-0.704 0.299,-0.704C0.366,-0.704 0.422,-0.687 0.465,-0.654C0.507,-0.62 0.531,-0.574 0.536,-0.515L0.41,-0.515C0.408,-0.54 0.396,-0.562 0.374,-0.58C0.352,-0.598 0.323,-0.607 0.287,-0.607C0.254,-0.607 0.228,-0.599 0.207,-0.582C0.186,-0.565 0.176,-0.541 0.176,-0.51C0.176,-0.489 0.183,-0.471 0.196,-0.458C0.209,-0.444 0.225,-0.433 0.245,-0.425C0.265,-0.417 0.292,-0.408 0.327,-0.399C0.373,-0.386 0.41,-0.374 0.44,-0.361C0.469,-0.348 0.493,-0.329 0.514,-0.303C0.534,-0.276 0.544,-0.241 0.544,-0.197C0.544,-0.162 0.535,-0.128 0.516,-0.097C0.497,-0.066 0.469,-0.041 0.433,-0.021C0.396,-0.003 0.353,0.007 0.304,0.007Z" style="fill-rule:nonzero;"/>
        </g>
        <g transform="matrix(5,0,0,5,21.83,5)">
            <path d="M0.524,-0.695L0.524,-0.602L0.339,-0.602L0.339,-0L0.225,-0L0.225,-0.602L0.039,-0.602L0.039,-0.695L0.524,-0.695Z" style="fill-rule:nonzero;"/>
        </g>
        <g transform="matrix(5,0,0,5,24.6375,5)">
            <path d="M0.304,0.007C0.257,0.007 0.215,-0.001 0.178,-0.018C0.141,-0.034 0.111,-0.057 0.09,-0.087C0.069,-0.117 0.058,-0.152 0.058,-0.192L0.18,-0.192C0.183,-0.162 0.195,-0.137 0.216,-0.118C0.236,-0.099 0.266,-0.089 0.304,-0.089C0.343,-0.089 0.374,-0.099 0.396,-0.117C0.418,-0.137 0.429,-0.161 0.429,-0.191C0.429,-0.214 0.422,-0.233 0.408,-0.248C0.395,-0.263 0.378,-0.274 0.358,-0.282C0.337,-0.29 0.309,-0.299 0.273,-0.308C0.228,-0.32 0.191,-0.332 0.163,-0.344C0.134,-0.357 0.11,-0.376 0.09,-0.402C0.07,-0.428 0.06,-0.463 0.06,-0.506C0.06,-0.546 0.07,-0.581 0.09,-0.611C0.11,-0.641 0.138,-0.664 0.174,-0.68C0.21,-0.696 0.252,-0.704 0.299,-0.704C0.366,-0.704 0.422,-0.687 0.465,-0.654C0.507,-0.62 0.531,-0.574 0.536,-0.515L0.41,-0.515C0.408,-0.54 0.396,-0.562 0.374,-0.58C0.352,-0.598 0.323,-0.607 0.287,-0.607C0.254,-0.607 0.228,-0.599 0.207,-0.582C0.186,-0.565 0.176,-0.541 0.176,-0.51C0.176,-0.489 0.183,-0.471 0.196,-0.458C0.209,-0.444 0.225,-0.433 0.245,-0.425C0.265,-0.417 0.292,-0.408 0.327,-0.399C0.373,-0.386 0.41,-0.374 0.44,-0.361C0.469,-0.348 0.493,-0.329 0.514,-0.303C0.534,-0.276 0.544,-0.241 0.544,-0.197C0.544,-0.162 0.535,-0.128 0.516,-0.097C0.497,-0.066 0.469,-0.041 0.433,-0.021C0.396,-0.003 0.353,0.007 0.304,0.007Z" style="fill-rule:nonzero;"/>
        </g>
    </g>
    <g transform="matrix(1,0,0,1,44.8884,48.8383)">
        <g id="text301-5">
            <g>
                <g transform="matrix(5,0,0,5,-37.72,0)">
                    <path d="M0.646,-0L0.532,-0L0.189,-0.519L0.189,-0L0.075,-0L0.075,-0.696L0.189,-0.696L0.532,-0.178L0.532,-0.696L0.646,-0.696L0.646,-0Z" style="fill-rule:nonzero;"/>
                </g>
                <g transform="matrix(5,0,0,5,-34.115,0)">
                    <path d="M0.189,-0.603L0.189,-0.399L0.429,-0.399L0.429,-0.306L0.189,-0.306L0.189,-0.093L0.459,-0.093L0.459,-0L0.075,-0L0.075,-0.696L0.459,-0.696L0.459,-0.603L0.189,-0.603Z" style="fill-rule:nonzero;"/>
                </g>
                <g transform="matrix(5,0,0,5,-31.495,0)">
                    <path d="M0.98,-0.695L0.774,-0L0.645,-0L0.499,-0.526L0.344,-0L0.216,0.001L0.019,-0.695L0.14,-0.695L0.284,-0.129L0.44,-0.695L0.568,-0.695L0.713,-0.132L0.858,-0.695L0.98,-0.695Z" style="fill-rule:nonzero;"/>
                </g>
                <g transform="matrix(5,0,0,5,-25.2,0)">
                    <path d="M0.561,-0.488C0.561,-0.453 0.553,-0.419 0.536,-0.388C0.519,-0.357 0.493,-0.331 0.456,-0.312C0.419,-0.292 0.372,-0.282 0.315,-0.282L0.189,-0.282L0.189,-0L0.075,-0L0.075,-0.695L0.315,-0.695C0.368,-0.695 0.413,-0.686 0.451,-0.668C0.488,-0.649 0.515,-0.624 0.534,-0.593C0.552,-0.562 0.561,-0.527 0.561,-0.488ZM0.315,-0.375C0.358,-0.375 0.391,-0.385 0.412,-0.405C0.433,-0.424 0.444,-0.452 0.444,-0.488C0.444,-0.564 0.401,-0.602 0.315,-0.602L0.189,-0.602L0.189,-0.375L0.315,-0.375Z" style="fill-rule:nonzero;"/>
                </g>
                <g transform="matrix(5,0,0,5,-22.225,0)">
                    <path d="M0.436,-0L0.276,-0.278L0.189,-0.278L0.189,-0L0.075,-0L0.075,-0.695L0.315,-0.695C0.368,-0.695 0.413,-0.686 0.451,-0.667C0.488,-0.648 0.515,-0.623 0.534,-0.592C0.552,-0.561 0.561,-0.526 0.561,-0.487C0.561,-0.442 0.548,-0.401 0.522,-0.364C0.495,-0.327 0.455,-0.301 0.4,-0.288L0.572,-0L0.436,-0ZM0.189,-0.369L0.315,-0.369C0.358,-0.369 0.39,-0.38 0.411,-0.401C0.433,-0.422 0.444,-0.451 0.444,-0.487C0.444,-0.523 0.433,-0.551 0.412,-0.572C0.391,-0.592 0.358,-0.602 0.315,-0.602L0.189,-0.602L0.189,-0.369Z" style="fill-rule:nonzero;"/>
                </g>
                <g transform="matrix(5,0,0,5,-19.065,0)">
                    <path d="M0.392,0.007C0.327,0.007 0.268,-0.008 0.214,-0.039C0.159,-0.069 0.116,-0.111 0.085,-0.166C0.053,-0.22 0.037,-0.281 0.037,-0.349C0.037,-0.417 0.053,-0.478 0.085,-0.532C0.116,-0.586 0.159,-0.628 0.214,-0.659C0.268,-0.689 0.327,-0.704 0.392,-0.704C0.457,-0.704 0.517,-0.689 0.572,-0.659C0.626,-0.628 0.669,-0.586 0.7,-0.532C0.731,-0.478 0.747,-0.417 0.747,-0.349C0.747,-0.281 0.731,-0.22 0.7,-0.166C0.669,-0.111 0.626,-0.069 0.572,-0.039C0.517,-0.008 0.457,0.007 0.392,0.007ZM0.392,-0.092C0.438,-0.092 0.479,-0.102 0.515,-0.124C0.551,-0.145 0.579,-0.174 0.6,-0.214C0.62,-0.253 0.63,-0.298 0.63,-0.349C0.63,-0.4 0.62,-0.445 0.6,-0.484C0.579,-0.523 0.551,-0.552 0.515,-0.573C0.479,-0.594 0.438,-0.604 0.392,-0.604C0.346,-0.604 0.305,-0.594 0.269,-0.573C0.233,-0.552 0.205,-0.523 0.185,-0.484C0.164,-0.445 0.154,-0.4 0.154,-0.349C0.154,-0.298 0.164,-0.253 0.185,-0.214C0.205,-0.174 0.233,-0.145 0.269,-0.124C0.305,-0.102 0.346,-0.092 0.392,-0.092Z" style="fill-rule:nonzero;"/>
                </g>
                <g transform="matrix(5,0,0,5,-15.145,0)">
                    <path d="M0.454,-0.695L0.454,-0.194C0.454,-0.132 0.435,-0.083 0.398,-0.047C0.36,-0.011 0.31,0.007 0.249,0.007C0.188,0.007 0.138,-0.011 0.101,-0.047C0.063,-0.083 0.044,-0.132 0.044,-0.194L0.159,-0.194C0.16,-0.163 0.168,-0.139 0.183,-0.121C0.198,-0.103 0.22,-0.094 0.249,-0.094C0.278,-0.094 0.301,-0.103 0.316,-0.122C0.331,-0.14 0.339,-0.164 0.339,-0.194L0.339,-0.695L0.454,-0.695Z" style="fill-rule:nonzero;"/>
                </g>
                <g transform="matrix(5,0,0,5,-12.325,0)">
                    <path d="M0.189,-0.603L0.189,-0.399L0.429,-0.399L0.429,-0.306L0.189,-0.306L0.189,-0.093L0.459,-0.093L0.459,-0L0.075,-0L0.075,-0.696L0.459,-0.696L0.459,-0.603L0.189,-0.603Z" style="fill-rule:nonzero;"/>
                </g>
                <g transform="matrix(5,0,0,5,-9.705,0)">
                    <path d="M0.037,-0.349C0.037,-0.417 0.053,-0.478 0.085,-0.532C0.116,-0.586 0.159,-0.628 0.214,-0.659C0.268,-0.689 0.327,-0.704 0.392,-0.704C0.466,-0.704 0.532,-0.686 0.59,-0.65C0.647,-0.613 0.689,-0.562 0.715,-0.495L0.578,-0.495C0.56,-0.532 0.535,-0.559 0.503,-0.577C0.471,-0.595 0.434,-0.604 0.392,-0.604C0.346,-0.604 0.305,-0.594 0.269,-0.573C0.233,-0.552 0.205,-0.523 0.185,-0.484C0.164,-0.445 0.154,-0.4 0.154,-0.349C0.154,-0.298 0.164,-0.253 0.185,-0.214C0.205,-0.175 0.233,-0.146 0.269,-0.125C0.305,-0.103 0.346,-0.093 0.392,-0.093C0.434,-0.093 0.471,-0.102 0.503,-0.12C0.535,-0.138 0.56,-0.165 0.578,-0.202L0.715,-0.202C0.689,-0.135 0.647,-0.084 0.59,-0.048C0.532,-0.012 0.466,0.006 0.392,0.006C0.327,0.006 0.267,-0.009 0.213,-0.04C0.159,-0.07 0.116,-0.112 0.085,-0.166C0.053,-0.22 0.037,-0.281 0.037,-0.349Z" style="fill-rule:nonzero;"/>
                </g>
                <g transform="matrix(5,0,0,5,-5.84,0)">
                    <path d="M0.524,-0.695L0.524,-0.602L0.339,-0.602L0.339,-0L0.225,-0L0.225,-0.602L0.039,-0.602L0.039,-0.695L0.524,-0.695Z" style="fill-rule:nonzero;"/>
                </g>
                <g transform="matrix(5,0,0,5,-3.02,0)">
                    <path d="M0.304,0.007C0.257,0.007 0.215,-0.001 0.178,-0.018C0.141,-0.034 0.111,-0.057 0.09,-0.087C0.069,-0.117 0.058,-0.152 0.058,-0.192L0.18,-0.192C0.183,-0.162 0.195,-0.137 0.216,-0.118C0.236,-0.099 0.266,-0.089 0.304,-0.089C0.343,-0.089 0.374,-0.099 0.396,-0.117C0.418,-0.137 0.429,-0.161 0.429,-0.191C0.429,-0.214 0.422,-0.233 0.408,-0.248C0.395,-0.263 0.378,-0.274 0.358,-0.282C0.337,-0.29 0.309,-0.299 0.273,-0.308C0.228,-0.32 0.191,-0.332 0.163,-0.344C0.134,-0.357 0.11,-0.376 0.09,-0.402C0.07,-0.428 0.06,-0.463 0.06,-0.506C0.06,-0.546 0.07,-0.581 0.09,-0.611C0.11,-0.641 0.138,-0.664 0.174,-0.68C0.21,-0.696 0.252,-0.704 0.299,-0.704C0.366,-0.704 0.422,-0.687 0.465,-0.654C0.507,-0.62 0.531,-0.574 0.536,-0.515L0.41,-0.515C0.408,-0.54 0.396,-0.562 0.374,-0.58C0.352,-0.598 0.323,-0.607 0.287,-0.607C0.254,-0.607 0.228,-0.599 0.207,-0.582C0.186,-0.565 0.176,-0.541 0.176,-0.51C0.176,-0.489 0.183,-0.471 0.196,-0.458C0.209,-0.444 0.225,-0.433 0.245,-0.425C0.265,-0.417 0.292,-0.408 0.327,-0.399C0.373,-0.386 0.41,-0.374 0.44,-0.361C0.469,-0.348 0.493,-0.329 0.514,-0.303C0.534,-0.276 0.544,-0.241 0.544,-0.197C0.544,-0.162 0.535,-0.128 0.516,-0.097C0.497,-0.066 0.469,-0.041 0.433,-0.021C0.396,-0.003 0.353,0.007 0.304,0.007Z" style="fill-rule:nonzero;"/>
                </g>
                <g transform="matrix(5,0,0,5,-31.165,5)">
                    <path d="M0.612,-0L0.526,-0.086C0.493,-0.053 0.456,-0.028 0.417,-0.012C0.378,0.005 0.334,0.013 0.285,0.013C0.236,0.013 0.192,0.004 0.154,-0.013C0.116,-0.03 0.087,-0.055 0.066,-0.087C0.045,-0.12 0.035,-0.157 0.035,-0.2C0.035,-0.248 0.049,-0.291 0.076,-0.329C0.103,-0.366 0.144,-0.396 0.198,-0.418C0.179,-0.441 0.165,-0.463 0.157,-0.484C0.149,-0.504 0.145,-0.526 0.145,-0.551C0.145,-0.582 0.153,-0.609 0.169,-0.633C0.184,-0.657 0.207,-0.676 0.236,-0.69C0.265,-0.704 0.299,-0.711 0.338,-0.711C0.377,-0.711 0.411,-0.704 0.439,-0.689C0.466,-0.674 0.487,-0.653 0.5,-0.627C0.514,-0.601 0.52,-0.572 0.517,-0.54L0.403,-0.54C0.404,-0.565 0.398,-0.584 0.385,-0.598C0.372,-0.611 0.355,-0.618 0.333,-0.618C0.311,-0.618 0.293,-0.612 0.28,-0.599C0.266,-0.586 0.259,-0.57 0.259,-0.551C0.259,-0.533 0.264,-0.515 0.275,-0.498C0.285,-0.48 0.303,-0.457 0.329,-0.429L0.513,-0.246L0.584,-0.363L0.707,-0.363L0.617,-0.209L0.592,-0.168L0.761,-0L0.612,-0ZM0.285,-0.084C0.348,-0.084 0.403,-0.11 0.451,-0.161L0.267,-0.346C0.188,-0.315 0.149,-0.267 0.149,-0.204C0.149,-0.17 0.162,-0.141 0.187,-0.118C0.212,-0.096 0.245,-0.084 0.285,-0.084Z" style="fill-rule:nonzero;"/>
                </g>
                <g transform="matrix(5,0,0,5,-26.06,5)">
                    <path d="M0.494,-0.142L0.203,-0.142L0.153,-0L0.034,-0L0.283,-0.696L0.415,-0.696L0.664,-0L0.544,-0L0.494,-0.142ZM0.462,-0.235L0.349,-0.558L0.235,-0.235L0.462,-0.235Z" style="fill-rule:nonzero;"/>
                </g>
                <g transform="matrix(5,0,0,5,-22.575,5)">
                    <path d="M0.037,-0.349C0.037,-0.417 0.053,-0.478 0.085,-0.532C0.116,-0.586 0.159,-0.628 0.214,-0.659C0.268,-0.689 0.327,-0.704 0.392,-0.704C0.466,-0.704 0.532,-0.686 0.59,-0.65C0.647,-0.613 0.689,-0.562 0.715,-0.495L0.578,-0.495C0.56,-0.532 0.535,-0.559 0.503,-0.577C0.471,-0.595 0.434,-0.604 0.392,-0.604C0.346,-0.604 0.305,-0.594 0.269,-0.573C0.233,-0.552 0.205,-0.523 0.185,-0.484C0.164,-0.445 0.154,-0.4 0.154,-0.349C0.154,-0.298 0.164,-0.253 0.185,-0.214C0.205,-0.175 0.233,-0.146 0.269,-0.125C0.305,-0.103 0.346,-0.093 0.392,-0.093C0.434,-0.093 0.471,-0.102 0.503,-0.12C0.535,-0.138 0.56,-0.165 0.578,-0.202L0.715,-0.202C0.689,-0.135 0.647,-0.084 0.59,-0.048C0.532,-0.012 0.466,0.006 0.392,0.006C0.327,0.006 0.267,-0.009 0.213,-0.04C0.159,-0.07 0.116,-0.112 0.085,-0.166C0.053,-0.22 0.037,-0.281 0.037,-0.349Z" style="fill-rule:nonzero;"/>
                </g>
                <g transform="matrix(5,0,0,5,-18.71,5)">
                    <path d="M0.524,-0.695L0.524,-0.602L0.339,-0.602L0.339,-0L0.225,-0L0.225,-0.602L0.039,-0.602L0.039,-0.695L0.524,-0.695Z" style="fill-rule:nonzero;"/>
                </g>
                <g transform="matrix(5,0,0,5,-15.89,5)">
                    <rect x="0.075" y="-0.695" width="0.114" height="0.695" style="fill-rule:nonzero;"/>
                </g>
                <g transform="matrix(5,0,0,5,-14.57,5)">
                    <path d="M0.674,-0.695L0.413,-0L0.281,-0L0.019,-0.695L0.141,-0.695L0.347,-0.117L0.554,-0.695L0.674,-0.695Z" style="fill-rule:nonzero;"/>
                </g>
                <g transform="matrix(5,0,0,5,-11.1,5)">
                    <rect x="0.075" y="-0.695" width="0.114" height="0.695" style="fill-rule:nonzero;"/>
                </g>
                <g transform="matrix(5,0,0,5,-9.78,5)">
                    <path d="M0.524,-0.695L0.524,-0.602L0.339,-0.602L0.339,-0L0.225,-0L0.225,-0.602L0.039,-0.602L0.039,-0.695L0.524,-0.695Z" style="fill-rule:nonzero;"/>
                </g>
                <g transform="matrix(5,0,0,5,-6.96,5)">
                    <rect x="0.075" y="-0.695" width="0.114" height="0.695" style="fill-rule:nonzero;"/>
                </g>
                <g transform="matrix(5,0,0,5,-5.64,5)">
                    <path d="M0.189,-0.603L0.189,-0.399L0.429,-0.399L0.429,-0.306L0.189,-0.306L0.189,-0.093L0.459,-0.093L0.459,-0L0.075,-0L0.075,-0.696L0.459,-0.696L0.459,-0.603L0.189,-0.603Z" style="fill-rule:nonzero;"/>
                </g>
                <g transform="matrix(5,0,0,5,-3.02,5)">
                    <path d="M0.304,0.007C0.257,0.007 0.215,-0.001 0.178,-0.018C0.141,-0.034 0.111,-0.057 0.09,-0.087C0.069,-0.117 0.058,-0.152 0.058,-0.192L0.18,-0.192C0.183,-0.162 0.195,-0.137 0.216,-0.118C0.236,-0.099 0.266,-0.089 0.304,-0.089C0.343,-0.089 0.374,-0.099 0.396,-0.117C0.418,-0.137 0.429,-0.161 0.429,-0.191C0.429,-0.214 0.422,-0.233 0.408,-0.248C0.395,-0.263 0.378,-0.274 0.358,-0.282C0.337,-0.29 0.309,-0.299 0.273,-0.308C0.228,-0.32 0.191,-0.332 0.163,-0.344C0.134,-0.357 0.11,-0.376 0.09,-0.402C0.07,-0.428 0.06,-0.463 0.06,-0.506C0.06,-0.546 0.07,-0.581 0.09,-0.611C0.11,-0.641 0.138,-0.664 0.174,-0.68C0.21,-0.696 0.252,-0.704 0.299,-0.704C0.366,-0.704 0.422,-0.687 0.465,-0.654C0.507,-0.62 0.531,-0.574 0.536,-0.515L0.41,-0.515C0.408,-0.54 0.396,-0.562 0.374,-0.58C0.352,-0.598 0.323,-0.607 0.287,-0.607C0.254,-0.607 0.228,-0.599 0.207,-0.582C0.186,-0.565 0.176,-0.541 0.176,-0.51C0.176,-0.489 0.183,-0.471 0.196,-0.458C0.209,-0.444 0.225,-0.433 0.245,-0.425C0.265,-0.417 0.292,-0.408 0.327,-0.399C0.373,-0.386 0.41,-0.374 0.44,-0.361C0.469,-0.348 0.493,-0.329 0.514,-0.303C0.534,-0.276 0.544,-0.241 0.544,-0.197C0.544,-0.162 0.535,-0.128 0.516,-0.097C0.497,-0.066 0.469,-0.041 0.433,-0.021C0.396,-0.003 0.353,0.007 0.304,0.007Z" style="fill-rule:nonzero;"/>
                </g>
            </g>
        </g>
    </g>
    <rect id="rect427" x="46.42" y="5.611" width="5.658" height="5.658" style="fill:rgb(95,122,187);"/>
    <rect id="rect427-8-5" x="46.42" y="46.833" width="5.658" height="5.658" style="fill:rgb(51,211,255);"/>
    <g id="rect427-8-51" serif:id="rect427-8-5" transform="matrix(1,0,0,1,0,13.1453)">
        <rect x="46.42" y="46.833" width="5.658" height="5.658" style="fill:rgb(75,210,105);"/>
    </g>
    <g id="rect427-8-5-1" transform="matrix(1,0,0,1,0,-0.51581)">
        <rect x="46.42" y="33.093" width="5.658" height="5.658" style="fill:rgb(255,103,77);"/>
    </g>
    <rect id="rect427-8-5-1-4" x="46.42" y="19.352" width="5.658" height="5.658" style="fill:rgb(250,185,6);"/>
    <path id="path295-7" d="M115.379,11.202C123.707,20.037 126.93,32.561 123.902,44.318L105.624,39.611C107.037,34.121 105.532,28.274 101.644,24.149L115.379,11.202Z" style="fill:rgb(255,103,77);fill-rule:nonzero;"/>
</svg>
